<?xml version="1.0" encoding="UTF-8" standalone="no"?>
<!DOCTYPE svg PUBLIC "-//W3C//DTD SVG 1.1//EN" "http://www.w3.org/Graphics/SVG/1.1/DTD/svg11.dtd">
<svg width="100%" height="100%" viewBox="0 0 265 265" version="1.1" xmlns="http://www.w3.org/2000/svg" xmlns:xlink="http://www.w3.org/1999/xlink" xml:space="preserve" xmlns:serif="http://www.serif.com/" style="fill-rule:evenodd;clip-rule:evenodd;stroke-miterlimit:100;">
    <g transform="matrix(1,0,0,1,-1375.07,-367.512)">
        <g id="S5_Caretaking" transform="matrix(1,0,0,1,1375.07,367.512)">
            <g>
                <rect x="0" y="0" width="264.567" height="264.567" style="fill:none;"/>
                <g transform="matrix(0.177098,0,0,0.177098,133.942,130.942)">
                    <g transform="matrix(1,0,0,1,-642.667,-642.667)">
                        <clipPath id="_clip1">
                            <rect x="0" y="0" width="1285.33" height="1285.33"/>
                        </clipPath>
                        <g clip-path="url(#_clip1)">
                            <g id="Shape-1" serif:id="Shape 1" transform="matrix(2.66667,0,0,2.66667,0,0)">
                                <path d="M332,302L382,265C382,265 396.11,179.37 405,168C413.89,156.63 426.92,141.5 421,223C415.08,304.5 397.62,311.39 388,323C378.38,334.61 329,375 329,375L324,450C324,450 319.47,459.49 293,463C266.53,466.51 248,462 248,462L252,390C252,390 242.38,337.4 258,318C299.09,266.96 395.32,179.84 367,238C354.21,264.27 332.3,277.34 332,301C331.96,304.3 332,302 332,302Z" style="fill:white;stroke:black;stroke-width:11px;"/>
                            </g>
                            <g id="Shape-1-copy" serif:id="Shape 1 copy" transform="matrix(2.66667,0,0,2.66667,0,0)">
                                <path d="M144,304L94,267C94,267 79.89,181.37 71,170C62.11,158.63 49.08,143.5 55,225C60.92,306.5 78.38,313.39 88,325C97.62,336.61 147,377 147,377L152,452C152,452 156.53,461.49 183,465C209.47,468.51 228,464 228,464L224,392C224,392 233.62,339.4 218,320C176.91,268.96 80.68,181.84 109,240C121.79,266.27 143.7,279.34 144,303C144.04,306.3 144,304 144,304Z" style="fill:white;stroke:black;stroke-width:11px;"/>
                            </g>
                            <g id="Shape-2" serif:id="Shape 2" transform="matrix(2.66667,0,0,2.66667,0,0)">
                                <path d="M252,50L243,58C243,58 170.31,-17.61 123,53C108.05,75.31 116.81,102.27 130,119C140.13,131.85 239,221 239,221L249,211" style="fill:white;stroke:black;stroke-width:11px;stroke-linejoin:round;stroke-miterlimit:4;"/>
                            </g>
                            <g id="Shape-2-copy" serif:id="Shape 2 copy" transform="matrix(2.66667,0,0,2.66667,0,0)">
                                <path d="M235.814,58.932C235.814,58.932 307.48,-15.08 355,53C370.37,75.02 361.19,102.27 348,119C337.87,131.85 239,221 239,221" style="fill:white;stroke:black;stroke-width:11px;stroke-linejoin:round;stroke-miterlimit:4;"/>
                            </g>
                        </g>
                    </g>
                </g>
            </g>
        </g>
    </g>
</svg>
