<?xml version="1.0" encoding="UTF-8" standalone="no"?>
<!DOCTYPE svg PUBLIC "-//W3C//DTD SVG 1.1//EN" "http://www.w3.org/Graphics/SVG/1.1/DTD/svg11.dtd">
<svg width="100%" height="100%" viewBox="0 0 265 265" version="1.1" xmlns="http://www.w3.org/2000/svg" xmlns:xlink="http://www.w3.org/1999/xlink" xml:space="preserve" xmlns:serif="http://www.serif.com/" style="fill-rule:evenodd;clip-rule:evenodd;stroke-miterlimit:100;">
    <g transform="matrix(1,0,0,1,-1067.02,-365.512)">
        <g id="S4_Coordination" transform="matrix(1,0,0,1,1067.02,365.512)">
            <rect x="0" y="0" width="264.567" height="264.567" style="fill:none;"/>
            <clipPath id="_clip1">
                <rect x="0" y="0" width="264.567" height="264.567"/>
            </clipPath>
            <g clip-path="url(#_clip1)">
                <g transform="matrix(0.214331,0,0,0.214331,131.283,136.743)">
                    <g transform="matrix(1,0,0,1,-642.667,-642.667)">
                        <clipPath id="_clip2">
                            <rect x="0" y="0" width="1285.33" height="1285.33"/>
                        </clipPath>
                        <g clip-path="url(#_clip2)">
                            <g id="Shape-5-copy-2" serif:id="Shape 5 copy 2" transform="matrix(1.63286e-16,-2.66667,2.66667,1.63286e-16,78.3137,1277.24)">
                                <path d="M295.845,118.45L196.351,170.696C196.351,170.696 197.685,189.38 195.484,198.369C193.451,206.672 173,225 173,225L109,226C109,226 89.45,233.9 81,217C72.55,200.1 70.85,198.36 70.85,198.36C70.85,198.36 64.435,185.993 63.062,180.779C61.898,176.36 62.61,167.077 62.61,167.077C62.61,167.077 59.355,155.749 60.95,151.488C62.544,147.227 74.527,141.563 74.527,141.563C74.527,141.563 83.292,123.952 91.55,119.985C100.352,115.756 122.053,111.417 129.756,113.193C137.458,114.969 169.139,122.543 169.139,122.543L273.365,75.457L295.845,118.45Z" style="fill:white;"/>
                            </g>
                            <g id="Shape-5-copy-21" serif:id="Shape 5 copy 2" transform="matrix(-4.89859e-16,2.66667,-2.66667,-4.89859e-16,1204.82,-37.3621)">
                                <path d="M269,137L192.048,172.697C192.048,172.697 194.872,193.931 192.671,202.92C190.638,211.222 173,225 173,225L109,226C109,226 91.126,229.643 84.822,226.017C78.519,222.392 71.179,204.247 71.179,204.247L61.168,183.64C61.168,183.64 55.388,162.443 57.615,155.43C59.536,149.379 73.455,142.163 73.455,142.163C73.455,142.163 81.653,128.552 89.911,124.585C98.713,120.356 127.338,116.192 127.338,116.192L164.345,118.1L242.592,78.13L269,137Z" style="fill:white;"/>
                            </g>
                            <g id="Shape-5" serif:id="Shape 5" transform="matrix(2.66667,0,0,2.66667,0,0)">
                                <path d="M213,331L292,289C292,289 278.62,256.89 283,250C287.38,243.11 305,227 305,227L362,207L367,215C367,215 376.85,198.53 389,213C401.15,227.47 403,231 403,231C403,231 417.85,246.31 418,252C418.15,257.69 416,260 416,260L424,269L422,278L411,287C411,287 405.31,310.84 391,317C376.69,323.16 362.2,329.73 352,329C341.8,328.27 328,328 328,328L254,369L232,374L213,331Z" style="fill:white;"/>
                            </g>
                            <g id="Shape-5-copy-22" serif:id="Shape 5 copy 2" transform="matrix(2.66667,0,0,2.66667,-0.101129,-1.72697)">
                                <path d="M269,137L186.207,171.064C186.207,171.064 190.601,196.624 188.4,205.613C186.367,213.915 173,225 173,225L109,226C109,226 89.45,233.9 81,217C72.55,200.1 70.85,198.36 70.85,198.36C70.85,198.36 64.435,185.993 63.062,180.779C61.898,176.36 62.61,167.077 62.61,167.077C62.61,167.077 59.355,155.749 60.95,151.488C62.544,147.227 74.527,141.563 74.527,141.563C74.527,141.563 83.292,123.952 91.55,119.985C100.352,115.756 119.636,114.416 127.338,116.192C135.041,117.967 148,128 148,128L248.146,87.726L269,137Z" style="fill:white;"/>
                            </g>
                            <g id="Group-1" serif:id="Group 1" transform="matrix(2.66667,0,0,2.66667,0,0)">
                                <g id="Shape-4" serif:id="Shape 4" transform="matrix(0.989033,0,0,0.998402,4.00298,0.34034)">
                                    <path d="M304.19,56.15C304.19,56.15 321.61,63.26 329.2,84.08C339.96,113.6 332,151 332,151L365,213" style="fill:none;stroke:black;stroke-width:10px;"/>
                                </g>
                                <path id="Shape-3" serif:id="Shape 3" d="M282.46,47.29C282.46,47.29 297.34,37.44 303.41,49.05C308.57,58.91 316.06,86.53 316.06,86.53" style="fill:none;stroke:black;stroke-width:10px;"/>
                                <path id="Shape-2" serif:id="Shape 2" d="M239.91,62.83C239.91,62.83 267.22,41.69 276.5,47.15C288.5,54.2 298.86,92.98 298.86,92.98" style="fill:none;stroke:black;stroke-width:10px;"/>
                                <path id="Shape-1" serif:id="Shape 1" d="M314.34,245.65L277.75,178.28C277.75,178.28 255.28,182.51 245.77,177.12C234.88,170.93 225.973,153.57 225.973,153.57L268.25,136.9L248,86L225.76,94.34C225.76,94.34 215.69,71.72 235.84,64.68C252.72,58.79 260.9,60.01 264.75,67.73C270.57,79.4 279.54,101.29 279.54,101.29" style="fill:none;stroke:black;stroke-width:10px;"/>
                            </g>
                            <g id="Group-1-copy-3" serif:id="Group 1 copy 3" transform="matrix(2.66667,0,0,2.66667,0,0)">
                                <path id="Shape-41" serif:id="Shape 4" d="M174,408C174,408 152.34,399.91 145,379C134.59,349.35 152,308 152,308L111,223" style="fill:none;stroke:black;stroke-width:10px;"/>
                                <path id="Shape-31" serif:id="Shape 3" d="M200,414C200,414 181.76,425.19 175.82,413.5C170.79,403.59 163.62,375.87 163.62,375.87" style="fill:none;stroke:black;stroke-width:10px;"/>
                                <path id="Shape-21" serif:id="Shape 2" d="M235,401C235,401 222.16,421.17 205,414C192.16,408.63 178.89,368.6 178.89,368.6" style="fill:none;stroke:black;stroke-width:10px;"/>
                                <path id="Shape-11" serif:id="Shape 1" d="M170.783,223L201.02,283.57C201.02,283.57 220.6,278.77 232.98,285.11C244.13,290.82 254,309 254,309L212,331L234,377L253,369C253,369 260.38,391.1 242,400C228.56,406.51 214.76,399.77 211,392C205.32,380.26 198.31,360.53 198.31,360.53" style="fill:none;stroke:black;stroke-width:10px;"/>
                            </g>
                            <g id="Group-1-copy-2" serif:id="Group 1 copy 2" transform="matrix(2.66667,0,0,2.66667,0,0)">
                                <path id="Shape-42" serif:id="Shape 4" d="M70,146C70,146 78.95,123.91 100,117C129.86,107.2 148,126 148,126L226,94" style="fill:none;stroke:black;stroke-width:10px;"/>
                                <path id="Shape-32" serif:id="Shape 3" d="M63.19,168.114C63.19,168.114 53.54,152.31 65.35,146.62C75.37,141.78 103.23,135.19 103.23,135.19" style="fill:none;stroke:black;stroke-width:10px;"/>
                                <path id="Shape-22" serif:id="Shape 2" d="M75.394,204.365C75.394,204.365 57.87,181.52 63.63,172.42C71.08,160.66 110.18,151.57 110.18,151.57" style="fill:none;stroke:black;stroke-width:10px;"/>
                                <path id="Shape-12" serif:id="Shape 1" d="M227,153L186,171C186,171 193.11,199.72 187.41,209.05C180.87,219.74 172.623,227.403 172.623,227.403L149.473,183.138L102,205L112.201,225.686C112.201,225.686 84.37,233.37 78,213C72.66,195.94 75.98,188.44 83.83,184.84C95.68,179.4 117.85,171.15 117.85,171.15" style="fill:none;stroke:black;stroke-width:10px;"/>
                            </g>
                            <g id="Group-1-copy" serif:id="Group 1 copy" transform="matrix(2.66667,0,0,2.66667,0,0)">
                                <path id="Shape-43" serif:id="Shape 4" d="M413,287C413,287 408.55,308.64 389.38,319.15C361.82,334.25 329.2,328.04 329.2,328.04L255,368" style="fill:none;stroke:black;stroke-width:10px;"/>
                                <path id="Shape-33" serif:id="Shape 3" d="M419,257C419,257 435.07,275.33 422.09,283.69C412.74,289.72 385.04,302.25 385.04,302.25" style="fill:none;stroke:black;stroke-width:10px;"/>
                                <path id="Shape-23" serif:id="Shape 2" d="M397.82,222.7C397.82,222.7 422.04,247.33 417.71,257.19C412.12,269.93 374.83,284.79 374.83,284.79" style="fill:none;stroke:black;stroke-width:10px;"/>
                                <path id="Shape-13" serif:id="Shape 1" d="M254,309L292,289C292,289 278.76,260.07 283,250C287.86,238.45 304,226 304,226L324,263L375,234L364.86,212.37C364.86,212.37 386.13,199.69 395.5,218.88C403.34,234.94 403.1,243.21 395.88,247.95C384.98,255.1 364.3,266.6 364.3,266.6" style="fill:none;stroke:black;stroke-width:10px;"/>
                            </g>
                        </g>
                    </g>
                </g>
            </g>
        </g>
    </g>
</svg>
