<?xml version="1.0" encoding="UTF-8" standalone="no"?>
<!DOCTYPE svg PUBLIC "-//W3C//DTD SVG 1.1//EN" "http://www.w3.org/Graphics/SVG/1.1/DTD/svg11.dtd">
<svg width="100%" height="100%" viewBox="0 0 265 265" version="1.1" xmlns="http://www.w3.org/2000/svg" xmlns:xlink="http://www.w3.org/1999/xlink" xml:space="preserve" xmlns:serif="http://www.serif.com/" style="fill-rule:evenodd;clip-rule:evenodd;stroke-miterlimit:100;">
    <g transform="matrix(1,0,0,1,-1067.02,-365.512)">
        <g id="S4_Coordination" transform="matrix(1,0,0,1,1067.02,365.512)">
            <rect x="0" y="0" width="264.567" height="264.567" style="fill:none;"/>
            <clipPath id="_clip1">
                <rect x="0" y="0" width="264.567" height="264.567"/>
            </clipPath>
            <g clip-path="url(#_clip1)">
                <g transform="matrix(0.21292,0,0,0.21292,132.283,135.283)">
                    <g transform="matrix(1,0,0,1,-642.667,-642.667)">
                        <clipPath id="_clip2">
                            <rect x="0" y="0" width="1285.33" height="1285.33"/>
                        </clipPath>
                        <g clip-path="url(#_clip2)">
                            <g id="Shape-5-copy-3" serif:id="Shape 5 copy 3" transform="matrix(2.66667,0,0,2.66667,0,0)">
                                <path d="M146,182L201,285C201,285 227.88,280.59 234,286C240.12,291.41 251,306 251,306L269,360L251,369C251,369 259.55,388.1 247,395C230.44,404.11 230,407 230,407C230,407 213.45,416.16 207.82,415.41C202.18,414.66 200.23,412.18 200.23,412.18L190.08,418.67L181.51,415.28L173,405C173,405 151.7,393.63 147.87,378.53C144.04,363.43 143.68,347.95 146,338C148.32,328.05 152,307 152,307L101,205L146,182Z" style="fill:white;stroke:black;stroke-width:10px;"/>
                            </g>
                            <g id="Shape-5" serif:id="Shape 5" transform="matrix(2.66667,0,0,2.66667,0,0)">
                                <path d="M213,331L292,289C292,289 278.62,256.89 283,250C287.38,243.11 305,227 305,227L362,207L367,215C367,215 376.85,198.53 389,213C401.15,227.47 403,231 403,231C403,231 417.85,246.31 418,252C418.15,257.69 416,260 416,260L424,269L422,278L411,287C411,287 405.31,310.84 391,317C376.69,323.16 362.2,329.73 352,329C341.8,328.27 328,328 328,328L254,369L232,374L213,331Z" style="fill:white;"/>
                            </g>
                            <g id="Shape-5-copy" serif:id="Shape 5 copy" transform="matrix(2.66667,0,0,2.66667,0,0)">
                                <path d="M322,260L277,177C277,177 252.12,183.41 246,178C239.88,172.59 228.97,155.29 228.97,155.29L218.22,95.84L226.91,92.17C226.91,92.17 212.2,79.85 228.4,70.13C244.61,60.41 248.39,59.14 248.39,59.14C248.39,59.14 265.85,46.89 271.49,47.64C277.13,48.4 279.07,50.88 279.07,50.88L289.22,44.4L297.8,47.8L304,58C304,58 324.18,64.89 328,80C331.82,95.11 336.32,114.05 334,124C331.68,133.95 332.34,148.51 332.34,148.51L365,213L362.62,250.56L322,260Z" style="fill:white;"/>
                            </g>
                            <g id="Shape-5-copy-2" serif:id="Shape 5 copy 2" transform="matrix(2.66667,0,0,2.66667,0,0)">
                                <path d="M269,137L186,170C186,170 191.86,205.32 186,211C180.14,216.68 173,225 173,225L109,226L102.13,222.31C102.13,222.31 89.45,233.9 81,217C72.55,200.1 70.85,198.36 70.85,198.36C70.85,198.36 59.97,180.01 61.15,174.45C62.34,168.88 64.96,167.13 64.96,167.13L59.28,156.52L63.32,148.23L73.97,142.83C73.97,142.83 85.65,124.65 101,122C116.35,119.35 123.25,115.92 133,119C142.75,122.08 148,128 148,128L233.2,93.9L270.47,99.16L269,137Z" style="fill:white;"/>
                            </g>
                            <g id="Group-1" serif:id="Group 1" transform="matrix(2.66667,0,0,2.66667,0,0)">
                                <path id="Shape-4" serif:id="Shape 4" d="M304.19,56.15C304.19,56.15 321.61,63.26 329.2,84.08C339.96,113.6 332,151 332,151L365,213" style="fill:none;stroke:black;stroke-width:10px;"/>
                                <path id="Shape-3" serif:id="Shape 3" d="M282.46,47.29C282.46,47.29 297.34,37.44 303.41,49.05C308.57,58.91 316.06,86.53 316.06,86.53" style="fill:none;stroke:black;stroke-width:10px;"/>
                                <path id="Shape-2" serif:id="Shape 2" d="M239.91,62.83C239.91,62.83 267.22,41.69 276.5,47.15C288.5,54.2 298.86,92.98 298.86,92.98" style="fill:none;stroke:black;stroke-width:10px;"/>
                                <path id="Shape-1" serif:id="Shape 1" d="M314.34,245.65L277.75,178.28C277.75,178.28 255.28,182.51 245.77,177.12C234.88,170.93 225.62,153.37 225.62,153.37L268.25,136.9L249.03,87.18L225.76,94.34C225.76,94.34 215.69,71.72 235.84,64.68C252.72,58.79 260.9,60.01 264.75,67.73C270.57,79.4 279.54,101.29 279.54,101.29" style="fill:none;stroke:black;stroke-width:10px;"/>
                            </g>
                            <g id="Group-1-copy-3" serif:id="Group 1 copy 3" transform="matrix(2.66667,0,0,2.66667,0,0)">
                                <path id="Shape-41" serif:id="Shape 4" d="M174,408C174,408 152.34,399.91 145,379C134.59,349.35 152,308 152,308L111,223" style="fill:none;stroke:black;stroke-width:5px;"/>
                                <path id="Shape-31" serif:id="Shape 3" d="M200,414C200,414 181.76,425.19 175.82,413.5C170.79,403.59 163.62,375.87 163.62,375.87" style="fill:none;stroke:black;stroke-width:10px;"/>
                                <path id="Shape-21" serif:id="Shape 2" d="M235,401C235,401 219.16,417.89 205,414C191.58,410.32 178.89,368.6 178.89,368.6" style="fill:none;stroke:black;stroke-width:10px;"/>
                                <path id="Shape-11" serif:id="Shape 1" d="M172,222L201.02,283.57C201.02,283.57 223.54,279.6 232.98,285.11C243.8,291.43 253,310 253,310L212,331L234,377L253,369C253,369 261.8,390.86 241.57,397.66C224.62,403.35 216.46,402.03 212.7,394.26C207.02,382.52 198.31,360.53 198.31,360.53" style="fill:none;stroke:black;stroke-width:10px;"/>
                            </g>
                            <g id="Group-1-copy-2" serif:id="Group 1 copy 2" transform="matrix(2.66667,0,0,2.66667,0,0)">
                                <path id="Shape-42" serif:id="Shape 4" d="M70,146C70,146 78.95,123.91 100,117C129.86,107.2 148,126 148,126L226,94" style="fill:none;stroke:black;stroke-width:10px;"/>
                                <path id="Shape-32" serif:id="Shape 3" d="M62.91,167.5C62.91,167.5 53.54,152.31 65.35,146.62C75.37,141.78 103.23,135.19 103.23,135.19" style="fill:none;stroke:black;stroke-width:10px;"/>
                                <path id="Shape-22" serif:id="Shape 2" d="M78.12,209.5C78.12,209.5 57.87,181.52 63.63,172.42C71.08,160.66 110.18,151.57 110.18,151.57" style="fill:none;stroke:black;stroke-width:10px;"/>
                                <path id="Shape-12" serif:id="Shape 1" d="M228,153L186,171C186,171 193.11,199.72 187.41,209.05C180.87,219.74 171,228 171,228L146,181L102,205L112,226C112,226 84.37,233.37 78,213C72.66,195.94 75.98,188.44 83.83,184.84C95.68,179.4 117.85,171.15 117.85,171.15" style="fill:none;stroke:black;stroke-width:10px;"/>
                            </g>
                            <g id="Group-1-copy" serif:id="Group 1 copy" transform="matrix(2.66667,0,0,2.66667,0,0)">
                                <path id="Shape-43" serif:id="Shape 4" d="M413,285.58C413,285.58 408.55,308.64 389.38,319.15C361.82,334.25 329.2,328.04 329.2,328.04L255,368" style="fill:none;stroke:black;stroke-width:10px;"/>
                                <path id="Shape-33" serif:id="Shape 3" d="M420.54,259.66C420.54,259.66 432.91,276.29 422.09,283.69C412.91,289.98 385.04,302.25 385.04,302.25" style="fill:none;stroke:black;stroke-width:10px;"/>
                                <path id="Shape-23" serif:id="Shape 2" d="M397.82,222.7C397.82,222.7 422.04,247.33 417.71,257.19C412.12,269.93 374.83,284.79 374.83,284.79" style="fill:none;stroke:black;stroke-width:10px;"/>
                                <path id="Shape-13" serif:id="Shape 1" d="M254,309L292,289C292,289 278.76,260.07 283,250C287.86,238.45 304,226 304,226L324,263L375,234L364.86,212.37C364.86,212.37 386.13,199.69 395.5,218.88C403.34,234.94 403.1,243.21 395.88,247.95C384.98,255.1 364.3,266.6 364.3,266.6" style="fill:none;stroke:black;stroke-width:10px;"/>
                            </g>
                        </g>
                    </g>
                </g>
            </g>
        </g>
    </g>
</svg>
