<?xml version="1.0" encoding="UTF-8" standalone="no"?>
<!DOCTYPE svg PUBLIC "-//W3C//DTD SVG 1.1//EN" "http://www.w3.org/Graphics/SVG/1.1/DTD/svg11.dtd">
<svg width="100%" height="100%" viewBox="0 0 265 265" version="1.1" xmlns="http://www.w3.org/2000/svg" xmlns:xlink="http://www.w3.org/1999/xlink" xml:space="preserve" xmlns:serif="http://www.serif.com/" style="fill-rule:evenodd;clip-rule:evenodd;stroke-linejoin:round;">
    <g transform="matrix(1,0,0,1,-593.746,-365.512)">
        <g id="S3_Personal-Safety" transform="matrix(1,0,0,1,593.746,365.512)">
            <rect x="0" y="0" width="264.567" height="264.567" style="fill:none;"/>
            <g transform="matrix(0.188446,0,0,0.188446,132.283,126.108)">
                <g transform="matrix(1,0,0,1,-642.667,-642.667)">
                    <g id="Shape-1-copy" serif:id="Shape 1 copy" transform="matrix(2.66667,0,0,2.66667,0,0)">
                        <path d="M241,29C241,29 298.79,74 351,74C403.21,74 454,50 454,50C454,50 440.62,248.86 408,319C343.85,456.93 241,467 241,467M241,29C241,29 183.21,74 131,74C78.79,74 28,50 28,50C28,50 41.38,248.86 74,319C138.15,456.93 241,467 241,467" style="fill:white;fill-rule:nonzero;"/>
                    </g>
                    <g id="fill">
                        <g id="Shape-9" serif:id="Shape 9" transform="matrix(2.66667,0,0,2.66667,0,0)">
                            <path d="M262.97,157.49C262.65,155.99 262.327,154.493 262,153C262,153 257.2,152.64 256.6,153.18C253.59,153.18 254.32,163.74 257.56,164.33C261.56,165.05 262.98,162.26 263,158"/>
                        </g>
                        <g id="Shape-9-copy" serif:id="Shape 9 copy" transform="matrix(2.66667,0,0,2.66667,0,0)">
                            <path d="M224.97,156.49C224.65,154.99 224.327,153.493 224,152C224,152 219.2,151.64 218.6,152.18C215.59,152.18 216.32,162.74 219.56,163.33C223.56,164.05 224.98,161.26 225,157"/>
                        </g>
                        <g id="Shape-1" serif:id="Shape 1" transform="matrix(2.66667,0,0,2.66667,0,0)">
                            <path d="M223,109C223.85,112.27 234,125.7 241,125C248,124.3 256,109 256,109L273,123C273,123 276.79,170 282,170C285.19,170 288.07,163.42 289,145C289.93,126.58 288.28,117 282,110C272.22,99.1 258.44,90.36 241,90C227.93,89.73 219.44,92.48 208,101C196.99,109.21 190.64,118.05 193,144C193.42,148.61 197.42,165.75 200,166C202.22,166.22 204.86,127.32 206,125C210.76,115.3 222.15,105.73 223,109Z"/>
                        </g>
                    </g>
                    <g id="stroke">
                        <g id="Shape-13" serif:id="Shape 13" transform="matrix(2.66667,0,0,2.66667,0,0)">
                            <path d="M231,285C231,285 204.72,271.57 195,274C185.28,276.43 166,308 166,308L175,339L201,317C201,317 205.02,323.13 213,323" style="fill:none;stroke:black;stroke-width:5px;"/>
                        </g>
                        <g id="Shape-14" serif:id="Shape 14" transform="matrix(2.66667,0,0,2.66667,0,0)">
                            <path d="M187.29,296.76C181.41,302.907 175.53,309.053 169.65,315.2C169.577,315.227 169.503,315.257 169.43,315.29" style="fill:none;stroke:black;stroke-width:5px;"/>
                        </g>
                        <g id="Shape-15" serif:id="Shape 15" transform="matrix(2.66667,0,0,2.66667,0,0)">
                            <path d="M190.5,310.53C184.633,316.51 178.763,322.487 172.89,328.46C173.103,328.28 173.317,328.097 173.53,327.91" style="fill:none;stroke:black;stroke-width:5px;"/>
                        </g>
                        <g id="Shape-16" serif:id="Shape 16" transform="matrix(2.66667,0,0,2.66667,0,0)">
                            <path d="M325.94,285.51C332,292.23 338.063,298.95 344.13,305.67C344.09,305.63 344.053,305.59 344.02,305.55" style="fill:none;stroke:black;stroke-width:5px;"/>
                        </g>
                        <g id="Shape-17" serif:id="Shape 17" transform="matrix(2.66667,0,0,2.66667,0,0)">
                            <path d="M318.66,295.27C325.073,301.577 331.487,307.887 337.9,314.2C337.807,313.873 337.713,313.55 337.62,313.23" style="fill:none;stroke:black;stroke-width:5px;"/>
                        </g>
                        <g id="Shape-18" serif:id="Shape 18" transform="matrix(2.66667,0,0,2.66667,0,0)">
                            <path d="M165.85,381.2C164.723,397.913 163.597,414.627 162.47,431.34C162.543,431.147 162.617,430.957 162.69,430.77" style="fill:none;stroke:black;stroke-width:5px;"/>
                        </g>
                        <g id="Shape-19" serif:id="Shape 19" transform="matrix(2.66667,0,0,2.66667,0,0)">
                            <path d="M323,371C323.27,381.18 323.73,390.82 324,401C324.49,410.82 324.38,417.12 324.86,426.94C325.067,426.587 325.27,426.23 325.47,425.87" style="fill:none;stroke:black;stroke-width:5px;"/>
                        </g>
                        <g id="Shape-20" serif:id="Shape 20" transform="matrix(2.66667,0,0,2.66667,0,0)">
                            <path d="M169.89,328.47C160.91,331.68 153.05,346.45 153.05,355.82L153.05,355.64" style="fill:none;stroke:black;stroke-width:5px;"/>
                        </g>
                        <g id="Shape-21" serif:id="Shape 21" transform="matrix(2.66667,0,0,2.66667,0,0)">
                            <path d="M335.25,318.12C336.83,319.85 344.62,338.29 342.43,338.29" style="fill:none;stroke:black;stroke-width:5px;"/>
                        </g>
                        <g id="Shape-22" serif:id="Shape 22" transform="matrix(2.66667,0,0,2.66667,0,0)">
                            <path d="M146.56,253.01L148.4,253.01C148.47,255.71 156.8,278.83 160,278.83" style="fill:none;stroke:black;stroke-width:5px;"/>
                        </g>
                        <g id="Shape-23" serif:id="Shape 23" transform="matrix(2.66667,0,0,2.66667,0,0)">
                            <path d="M347.91,253.01L342.13,253.01C339.67,258.457 337.21,263.907 334.75,269.36L334.75,269.1" style="fill:none;stroke:black;stroke-width:5px;"/>
                        </g>
                        <g id="Shape-13-copy" serif:id="Shape 13 copy" transform="matrix(2.66667,0,0,2.66667,0,0)">
                            <path d="M267,292C267,292 288.67,266.18 317,267C333.6,267.48 351,301 351,301L335,320L312,305" style="fill:none;stroke:black;stroke-width:5px;"/>
                        </g>
                        <g id="Shape-10" serif:id="Shape 10" transform="matrix(2.66667,0,0,2.66667,0,0)">
                            <path d="M221.7,207.53C229.57,220.43 248.65,221.62 257.57,209.47C257.543,209.503 257.513,209.533 257.48,209.56" style="fill:none;stroke:black;stroke-width:4px;"/>
                        </g>
                        <g id="Shape-5" serif:id="Shape 5" transform="matrix(2.66667,0,0,2.66667,0,0)">
                            <path d="M249.19,135.1C255.54,136.07 261.65,137.03 268,138C267.95,138.1 269.05,137.9 269,138" style="fill:none;stroke:black;stroke-width:6px;"/>
                        </g>
                        <g id="Shape-6" serif:id="Shape 6" transform="matrix(2.66667,0,0,2.66667,0,0)">
                            <path d="M228.89,188.22C225.59,197.82 239.16,200.46 244.75,195.55C244.75,195.55 241,156.81 242.56,144.38" style="fill:none;stroke:black;stroke-width:4px;"/>
                        </g>
                        <g id="Shape-3-copy" serif:id="Shape 3 copy" transform="matrix(2.66667,0,0,2.66667,0,0)">
                            <path d="M194,146C194,146 187.66,142.42 183,147C178.34,151.58 177.01,163.33 182,172C186.99,180.67 190.9,190.16 195,189C199.1,187.84 200,182 200,182" style="fill:none;stroke:black;stroke-width:5px;"/>
                        </g>
                        <g id="Shape-2" serif:id="Shape 2" transform="matrix(2.66667,0,0,2.66667,0,0)">
                            <path d="M284,166C284,166 279.63,234 241,234C204.2,234 196.73,182.28 197,153" style="fill:none;stroke:black;stroke-width:5px;"/>
                        </g>
                        <g id="Shape-3" serif:id="Shape 3" transform="matrix(2.66667,0,0,2.66667,0,0)">
                            <path d="M288,146C288,146 294.34,142.42 299,147C303.66,151.58 304.99,163.33 300,172C295.01,180.67 291.1,190.16 287,189C282.9,187.84 282,182 282,182" style="fill:none;stroke:black;stroke-width:5px;"/>
                        </g>
                        <g id="Shape-4" serif:id="Shape 4" transform="matrix(2.66667,0,0,2.66667,0,0)">
                            <path d="M210.72,142.37C216.553,139.917 222.39,137.467 228.23,135.02" style="fill:none;stroke:black;stroke-width:6px;"/>
                        </g>
                        <g id="Shape-11" serif:id="Shape 11" transform="matrix(2.66667,0,0,2.66667,0,0)">
                            <path d="M275,204C275,212.04 275.33,225 278,225C278,225 329.83,242.28 351,253C355.49,260.93 359.93,282 360,282C360,282 371.55,346.18 352,365C333.97,382.36 314.86,368.33 287,357C251.01,342.36 215,323 215,323L232,285L314,306" style="fill:none;stroke:black;stroke-width:5px;"/>
                        </g>
                        <g id="Shape-11-copy" serif:id="Shape 11 copy" transform="matrix(2.66667,0,0,2.66667,0,0)">
                            <path d="M207,216C206.06,213.76 205.54,226.85 206,226C206,226 142.87,250.38 143,255C143,255 123.95,336.83 137,368C143.78,384.19 185.08,386.95 220,369C248.79,354.2 253,343 253,343" style="fill:none;stroke:black;stroke-width:5px;"/>
                        </g>
                        <g id="Shape-12" serif:id="Shape 12" transform="matrix(2.66667,0,0,2.66667,0,0)">
                            <path d="M247,248C247,248 261.3,283.74 271,274C280.7,264.26 279,218 279,218L247,248Z" style="fill:none;stroke:black;stroke-width:6px;"/>
                        </g>
                        <g id="Shape-12-copy" serif:id="Shape 12 copy" transform="matrix(2.66667,0,0,2.66667,0,0)">
                            <path d="M242,249C242,249 227.7,284.74 218,275C208.3,265.26 210,219 210,219L242,249Z" style="fill:none;stroke:black;stroke-width:6px;"/>
                        </g>
                        <g id="Shape-7" serif:id="Shape 7" transform="matrix(2.66667,0,0,2.66667,0,0)">
                            <path d="M291.66,156.24C297.62,158.46 291.3,172.22 288.98,172.22" style="fill:none;stroke:black;stroke-width:4px;"/>
                        </g>
                        <g id="Shape-8" serif:id="Shape 8" transform="matrix(2.66667,0,0,2.66667,0,0)">
                            <path d="M188.92,156.1C184.5,160.81 190.23,166.26 190.23,171.36" style="fill:none;stroke:black;stroke-width:4px;"/>
                        </g>
                        <g id="Shape-1-copy1" serif:id="Shape 1 copy" transform="matrix(2.66667,0,0,2.66667,0,0)">
                            <path d="M241,29C241,29 298.79,74 351,74C403.21,74 454,50 454,50C454,50 440.62,248.86 408,319C343.85,456.93 241,467 241,467M241,29C241,29 183.21,74 131,74C78.79,74 28,50 28,50C28,50 41.38,248.86 74,319C138.15,456.93 241,467 241,467" style="fill:none;fill-rule:nonzero;stroke:black;stroke-width:6px;"/>
                        </g>
                    </g>
                </g>
            </g>
        </g>
    </g>
</svg>
