<svg width="34" height="30" viewBox="0 0 34 30" fill="none" xmlns="http://www.w3.org/2000/svg">
<path d="M2 12.728C0.895431 12.728 9.65645e-08 13.6235 0 14.728C-9.65645e-08 15.8326 0.89543 16.728 2 16.728L2 14.728L2 12.728ZM32.9347 16.1422C33.7158 15.3612 33.7158 14.0949 32.9347 13.3138L20.2068 0.585893C19.4258 -0.195156 18.1594 -0.195156 17.3784 0.585893C16.5973 1.36694 16.5973 2.63327 17.3784 3.41432L28.6921 14.728L17.3784 26.0417C16.5973 26.8228 16.5973 28.0891 17.3784 28.8702C18.1594 29.6512 19.4257 29.6512 20.2068 28.8702L32.9347 16.1422ZM2 14.728L2 16.728L31.5205 16.728L31.5205 14.728L31.5205 12.728L2 12.728L2 14.728Z" fill="white"/>
</svg>
