<?xml version="1.0" encoding="UTF-8" standalone="no"?>
<svg
   width="83"
   height="76"
   viewBox="0 0 83 76"
   fill="none"
   version="1.1"
   id="svg7"
   xmlns="http://www.w3.org/2000/svg"
   xmlns:svg="http://www.w3.org/2000/svg">
  <defs
     id="defs7" />
  <path
     d="M 73.4779,75.8608 H 9.23545 C 5.93136,75.8608 2.95186,74.1547 1.27901,71.3 -0.39384,68.4454 -0.427131,65.0164 1.18746,62.1285 L 33.3045,4.71893 C 34.9607,1.7644 37.9652,0 41.3525,0 c 3.3873,0 6.3918,1.7644 8.048,4.71893 L 81.5176,62.1285 c 1.6146,2.8879 1.5813,6.3169 -0.0916,9.1715 -1.6728,2.8547 -4.644,4.5608 -7.9564,4.5608 z M 41.3608,3.09602 c -2.2554,0 -4.2528,1.17349 -5.3514,3.13763 L 3.884,63.6515 c -1.07363,1.9226 -1.04866,4.203 0.06658,6.1005 1.11523,1.8976 3.08769,3.0295 5.29319,3.0295 H 73.4862 c 2.1972,0 4.178,-1.1319 5.2932,-3.0295 1.1153,-1.8975 1.1402,-4.1779 0.0583,-6.1005 L 46.7206,6.23365 C 45.622,4.26951 43.6163,3.09602 41.3692,3.09602 Z"
     fill="#FF4612"
     id="path1"
     style="fill:#000000" />
  <path
     d="m 18.3999,51.8264 c -0.2663,0 -0.5326,-0.0666 -0.7657,-0.1998 -0.3495,-0.1997 -0.6075,-0.5243 -0.724,-0.9238 -0.1166,-0.3995 -0.0666,-0.8156 0.1414,-1.1735 L 37.8583,12.3438 c 0.7157,-1.29 2.0307,-2.0557 3.5038,-2.0557 1.4731,0 2.7797,0.7657 3.5038,2.0557 l 2.2305,3.9782 c 0.1997,0.3579 0.2497,0.774 0.1415,1.1735 -0.1082,0.3995 -0.3746,0.7241 -0.7324,0.9238 -0.7407,0.4161 -1.6812,0.1498 -2.0973,-0.5909 l -2.2305,-3.9782 c -0.3329,-0.5993 -1.2817,-0.6076 -1.6146,0 L 19.7565,51.0357 c -0.2663,0.4827 -0.7823,0.7907 -1.3483,0.7907 z"
     fill="#FF4612"
     id="path2"
     style="fill:#000000" />
  <path
     d="m 53.5634,32.5999 c -0.5576,0 -1.0737,-0.2997 -1.34,-0.7824 l -4.3527,-7.7816 c -0.1998,-0.3579 -0.2497,-0.774 -0.1415,-1.1735 0.1082,-0.3995 0.3745,-0.7241 0.7324,-0.9238 0.3579,-0.1998 0.774,-0.2497 1.1735,-0.1415 0.3995,0.1082 0.7241,0.3745 0.9238,0.7324 l 4.3444,7.7733 c 0.1998,0.3579 0.2497,0.774 0.1415,1.1735 -0.1082,0.3995 -0.3745,0.7241 -0.7324,0.9238 -0.2247,0.1248 -0.4827,0.1998 -0.7574,0.1998 z"
     fill="#FF4612"
     id="path3"
     style="fill:#000000" />
  <path
     d="M 69.2506,68.1646 H 55.1354 c -0.8489,0 -1.5397,-0.6908 -1.5397,-1.5397 0,-0.8489 0.6908,-1.5397 1.5397,-1.5397 h 14.1152 c 0.3412,0 0.6325,-0.1665 0.799,-0.4578 0.1747,-0.2913 0.1747,-0.6242 0.0083,-0.9238 -0.4161,-0.7407 -0.1498,-1.6811 0.5909,-2.0973 0.7407,-0.4161 1.6812,-0.1498 2.0973,0.5909 0.6991,1.2567 0.6908,2.7465 -0.0416,3.9866 -0.7324,1.24 -2.0224,1.9808 -3.4622,1.9808 z"
     fill="#FF4612"
     id="path4"
     style="fill:#000000" />
  <path
     d="M 49.2179,68.1626 H 13.4721 c -1.4398,0 -2.7381,-0.7407 -3.4622,-1.9808 C 9.27754,64.9417 9.26921,63.452 9.96832,62.1952 l 3.73688,-6.683 c 0.4161,-0.7407 1.3649,-1.0071 2.0973,-0.5909 0.7407,0.4161 1.007,1.3566 0.5909,2.0973 l -3.7369,6.683 c -0.1664,0.2913 -0.1581,0.6326 0.0083,0.9239 0.1748,0.2912 0.4661,0.4577 0.799,0.4577 h 35.7458 c 0.8489,0 1.5396,0.6908 1.5396,1.5397 0,0.8489 -0.6907,1.5397 -1.5396,1.5397 z"
     fill="#FF4612"
     id="path5"
     style="fill:#000000" />
  <path
     d="m 44.7012,57.2475 c 0.3253,-1.8469 -0.9082,-3.6078 -2.7551,-3.9332 -1.8469,-0.3253 -3.6079,0.9082 -3.9332,2.7551 -0.3253,1.8469 0.9082,3.6079 2.7551,3.9332 1.8469,0.3254 3.6079,-0.9081 3.9332,-2.7551 z"
     fill="#FF4612"
     id="path6"
     style="fill:#000000" />
  <path
     d="m 41.9427,27.5073 h -1.1652 c -1.6312,0 -2.9379,1.3566 -2.8796,2.9878 l 0.5826,16.6869 c 0.0582,1.5564 1.3316,2.7798 2.8796,2.7798 1.548,0 2.8297,-1.2318 2.8796,-2.7798 l 0.5826,-16.6869 c 0.0583,-1.6312 -1.2484,-2.9878 -2.8796,-2.9878 z"
     fill="#FF4612"
     id="path7"
     style="fill:#000000" />
</svg>
