<?xml version="1.0" encoding="UTF-8" standalone="no"?>
<svg
   width="31.695"
   height="31.695"
   viewBox="0 0 31.694999 31.694999"
   fill="none"
   version="1.1"
   id="svg1"
   xmlns="http://www.w3.org/2000/svg"
   xmlns:svg="http://www.w3.org/2000/svg">
  <defs
     id="defs1" />
  <path
     d="M 27.1394,3.00344 C 26.878,2.56825 26.3132,2.42757 25.878,2.6892 25.7657,2.75668 25.6624,2.83213 25.5613,2.90948 25.0986,3.25469 24.6146,3.81049 24.2243,4.22906 20.7948,7.9276 17.6871,11.9537 15.123,16.3092 c -0.2551,0.4241 -0.5197,0.8896 -0.7337,1.3364 -0.2061,0.421 -0.4255,0.8847 -0.6216,1.313 -1.3486,-2.4691 -3.4706,-5.1787 -5.9895,-6.2875 -1.00708,-0.4167 -2.00361,0.6437 -1.50491,1.6279 0.14777,0.2902 0.32029,0.5608 0.49316,0.8337 0.84205,1.3265 1.83145,2.538 2.70575,3.8368 1.1118,1.6271 2.0481,3.3498 2.9538,5.0956 0.6238,1.1772 2.3909,1.0007 2.7629,-0.2905 0.6245,-1.3139 1.2665,-2.6119 1.9529,-3.8918 0.2193,-0.4151 0.4726,-0.8572 0.6833,-1.2753 0.2049,-0.4108 0.4352,-0.8858 0.6482,-1.2936 1.7659,-3.4572 3.8847,-6.717 6.1758,-9.8587 0.3883,-0.52951 0.9185,-1.24658 1.3158,-1.77019 0.2526,-0.33847 0.6575,-0.83751 0.8745,-1.18929 0.1351,-0.21215 0.262,-0.42879 0.3601,-0.6636 C 27.3087,3.57083 27.296,3.2642 27.1394,3.00326 Z"
     fill="#ffffff"
     id="path1"
     style="fill:#000000" />
</svg>
