<?xml version="1.0" encoding="UTF-8" standalone="no"?>
<svg
   width="31"
   height="31"
   viewBox="0 0 31 31"
   fill="none"
   version="1.1"
   id="svg2"
   xmlns="http://www.w3.org/2000/svg"
   xmlns:svg="http://www.w3.org/2000/svg">
  <defs
     id="defs2" />
  <g
     id="g2"
     transform="translate(-9.97575,33.29775)"
     style="fill:#000000">
    <path
       d="m 33.0891,-25.2655 h -3.6285 l -0.0585,-0.799877 C 29.3636,-26.592281 28.9255,-27 28.3981,-27 h -5.84432 c -0.52744,0 -0.96548,0.407719 -1.00406,0.934623 l -0.0585,0.799877 H 17.862374 C 17.386121,-25.2655 17,-24.87884 17,-24.40173 c 0,0.47692 0.386121,0.86359 0.862374,0.86359 H 33.0891 c 0.4763,0 0.8624,-0.38667 0.8624,-0.86359 0,-0.47692 -0.3861,-0.86359 -0.8624,-0.86359 z"
       fill="#ffffff"
       id="path1"
       style="fill:#000000" />
    <path
       d="m 17.998047,-22.45996 0.900403,12.30606 c 0.06417,0.8786 0.79491,1.5584 1.67447,1.5584 H 30.379 c 0.8797,0 1.6101,-0.68 1.6744,-1.5584 l 0.9004,-12.30606 z m 4.408033,11.00716 c -0.008,3e-4 -0.0159,7e-4 -0.02376,7e-4 -0.19416,0 -0.35742,-0.1512 -0.36985,-0.348 l -0.49052,-7.71941 c -0.01298,-0.20469 0.14224,-0.38136 0.34682,-0.39436 0.20421,-0.01281 0.38063,0.14244 0.3938,0.3473 l 0.49051,7.71937 c 0.0128,0.2047 -0.14224,0.3814 -0.34681,0.3944 z m 3.44072,-0.3708 c 0,0.2053 -0.166,0.3715 -0.37076,0.3715 -0.20476,0 -0.37095,-0.1662 -0.37095,-0.3715 v -7.71953 c 0,-0.20523 0.166,-0.37129 0.37095,-0.37129 0.20494,0 0.37076,0.16624 0.37076,0.37129 z m 3.5833,-7.69591 -0.4905,7.71941 c -0.0124,0.1966 -0.1757,0.348 -0.3698,0.348 -0.0081,0 -0.0159,-4e-4 -0.024,-7e-4 -0.2044,-0.013 -0.3596,-0.1897 -0.3466,-0.3944 l 0.4905,-7.71937 c 0.013,-0.20468 0.1896,-0.36011 0.3938,-0.3473 0.2044,0.013 0.3596,0.18967 0.3466,0.39436 z"
       fill="#ffffff"
       id="path2"
       style="fill:#000000" />
  </g>
</svg>
