<?xml version="1.0" encoding="UTF-8" standalone="no"?>
<svg
   width="31"
   height="31"
   viewBox="0 0 31 31"
   fill="none"
   version="1.1"
   id="svg2"
   xmlns="http://www.w3.org/2000/svg"
   xmlns:svg="http://www.w3.org/2000/svg">
  <defs
     id="defs2" />
  <rect
     width="31"
     height="31"
     rx="0"
     fill="#ffffff"
     id="rect1"
     x="0"
     y="0" />
  <path
     d="m 15.51258,21.24745 c -0.3697,0 -0.689,-0.1177 -0.9579,-0.353 -0.252,-0.2352 -0.3781,-0.5209 -0.3781,-0.857 v -9.0497 c 0,-0.3529 0.1261,-0.647 0.3781,-0.8823 0.2689,-0.2353 0.5882,-0.3529 0.9579,-0.3529 0.3698,0 0.6807,0.1176 0.9327,0.3529 0.2689,0.2353 0.4034,0.5294 0.4034,0.8823 v 9.0497 c 0,0.3361 -0.1345,0.6218 -0.4034,0.857 -0.252,0.2353 -0.5629,0.353 -0.9327,0.353 z m -4.4114,-4.5375 c -0.3529,0 -0.647,-0.1176 -0.8822,-0.3529 -0.23532,-0.2353 -0.35296,-0.521 -0.35296,-0.8571 0,-0.3529 0.11764,-0.647 0.35296,-0.8822 0.2352,-0.2353 0.5293,-0.353 0.8822,-0.353 h 8.7976 c 0.3529,0 0.647,0.1177 0.8823,0.353 0.2353,0.2352 0.3529,0.5293 0.3529,0.8822 0,0.3361 -0.1176,0.6218 -0.3529,0.8571 -0.2353,0.2353 -0.5294,0.3529 -0.8823,0.3529 z"
     fill="#0004a0"
     id="path3"
     style="fill:#000000" />
</svg>
