<?xml version="1.0" encoding="UTF-8" standalone="no"?>
<svg
   width="31"
   height="31"
   viewBox="0 0 31 31"
   fill="none"
   version="1.1"
   id="svg2"
   xmlns="http://www.w3.org/2000/svg"
   xmlns:svg="http://www.w3.org/2000/svg">
  <defs
     id="defs2" />
  <rect
     width="31"
     height="31"
     rx="0"
     fill="#ffffff"
     id="rect1"
     x="0"
     y="0" />
  <path
     d="m 24.6608,15.463 h -1.2837 v -0.9542 c -0.9296,0.6896 -2.0806,1.0981 -3.3248,1.0981 h -9.2267 c -1.19048,0 -2.29527,-0.3743 -3.20326,-1.0109 v 0.8662 h -1.2837 c -1.22332,0 -2.21852,0.9953 -2.21852,2.2186 v 3.1153 c 0,2.1238 1.65047,3.869 3.73556,4.0211 0.49574,1.2695 1.73247,2.1708 3.17572,2.1708 h 8.9374 c 1.4425,0 2.6793,-0.9013 3.1758,-2.1708 2.085,-0.1521 3.7355,-1.8973 3.7355,-4.0211 v -3.1153 c 0,-1.2233 -0.9952,-2.2186 -2.2193,-2.2186 z M 7.62234,23.7236 C 6.23428,23.4731 5.17869,22.2565 5.17869,20.7976 v -3.1153 c 0,-0.6397 0.52034,-1.16 1.15995,-1.16 h 1.2837 v 7.2005 z M 21.02,18.8817 c 0,2.5346 -2.062,4.5959 -4.5959,4.5959 h -1.848 c -2.5346,0 -4.59583,-2.062 -4.59583,-4.5959 v -0.8312 c 0,-0.2929 0.23703,-0.5293 0.52933,-0.5293 h 9.9811 c 0.2929,0 0.5293,0.2371 0.5293,0.5293 z m 4.8015,1.9159 c 0,1.4589 -1.0563,2.6755 -2.4436,2.926 v -7.2005 h 1.2837 c 0.6396,0 1.1599,0.5203 1.1599,1.1599 v 3.1153 z"
     fill="#0DCEDC"
     id="path1"
     style="fill:#000000" />
  <path
     d="m 10.8257,14.5484 h 9.2267 c 1.3128,0 2.4966,-0.5606 3.3248,-1.4552 0.75,-0.8088 1.2092,-1.8912 1.2092,-3.0788 V 8.19622 c 0,-1.06975 -0.87,-1.94047 -1.9398,-1.94047 H 18.7583 C 18.7545,6.07535 18.7359,5.89867 18.7038,5.72647 18.6703,5.54457 18.6218,5.36715 18.5592,5.19644 18.0948,3.92392 16.8715,3.01221 15.4394,3.01221 c -1.432,0 -2.6554,0.91171 -3.1198,2.18498 -0.0619,0.17071 -0.1103,0.34738 -0.1439,0.53003 -0.032,0.1722 -0.0506,0.34888 -0.0544,0.52928 H 8.23294 c -1.06975,0 -1.94046,0.87071 -1.94046,1.94046 v 1.81824 c 0,1.2501 0.50841,2.384 1.32992,3.2048 0.82077,0.8207 1.95388,1.3284 3.2033,1.3284 z m 2.4355,-8.82118 c 0.0521,-0.18712 0.1274,-0.36529 0.2236,-0.53003 0.3921,-0.67317 1.1212,-1.12641 1.9546,-1.12641 0.8335,0 1.5625,0.45324 1.9546,1.12641 0.0962,0.16474 0.1723,0.34217 0.2237,0.53003 0.047,0.16922 0.0745,0.34664 0.0805,0.52928 h -4.5183 c 0.006,-0.18264 0.0335,-0.36006 0.0813,-0.52928 z"
     fill="#0DCEDC"
     id="path2"
     style="fill:#000000" />
</svg>
