<?xml version="1.0" encoding="UTF-8" standalone="no"?>
<svg
   width="36.048"
   height="36.048"
   viewBox="0 0 36.048 36.048"
   fill="none"
   version="1.1"
   id="svg1"
   xmlns="http://www.w3.org/2000/svg"
   xmlns:svg="http://www.w3.org/2000/svg">
  <defs
     id="defs1" />
  <path
     d="m 9.9389068,6.7680003 c 0,-2.832 4.3679992,-6.76799993430664 9.4559992,-6.76799993430664 h 0.816 c 4.32,0 10.224,2.39999993430664 10.224,8.83199993430664 0,4.2239997 -3.312,8.7839997 -10.32,9.5039997 l -1.536,6.72 h -1.152 l -1.104,-10.272 c 6.192,-0.096 7.968,-3.6 7.968,-6.6239997 -0.048,-3.984 -3.072,-6.048 -6.576,-6.048 -1.488,0 -2.928,0.336 -3.648,1.296 1.584,0 3.312,1.536 3.312,3.6 0,2.0639998 -1.68,3.6959997 -3.744,3.6959997 -2.064,0 -3.6959992,-1.3919999 -3.6959992,-3.9359997 z M 14.306906,32.352 c 0,-2.064 1.632,-3.744 3.696,-3.744 2.064,0 3.744,1.68 3.744,3.744 0,2.064 -1.68,3.696 -3.744,3.696 -2.064,0 -3.696,-1.632 -3.696,-3.696 z"
     fill="#FF4612"
     id="path1"
     style="fill:#000000" />
</svg>
