<svg width="469" height="377" viewBox="0 0 469 377" fill="none" xmlns="http://www.w3.org/2000/svg">
<path d="M193.427 251.91C167.508 258.81 141.335 258.92 115.44 253.598C102.516 250.944 84.5864 244.251 78.0491 232.634C62.9753 231.845 48.4092 229.029 35.5965 221.665C28.1468 217.102 21.6651 211.913 17.5079 204.704C11.3355 194.015 12.7001 181.402 22.4823 173.029C10.9468 156.568 7.34495 137.137 13.557 118.51C-7.43534 97.6927 -3.16706 63.9463 20.2767 46.8888C36.8262 35.1609 58.8102 35.382 74.6536 47.8913C93.3848 33.0158 117.638 22.6074 142.454 25.2168C156.195 13.511 172.015 4.96756 190.31 1.42191C210.635 -2.66186 236.904 1.23025 240.418 23.9416C265.663 21.0299 290.487 24.2143 312.408 34.7923C331.337 43.9255 348.49 59.7225 346.578 81.0848C363.484 86.724 378.026 95.6729 388.8 108.654C407.246 130.871 406.786 160.851 387.713 182.7C375.115 197.126 357.748 206.605 337.843 211.412C338.128 243.603 311.384 266.882 279.039 273.877C248.828 280.755 214.975 272.992 193.412 251.917L193.427 251.91Z" fill="white"/>
<path d="M375.503 319.838C358.01 333.077 327.235 334.611 311.876 320.465C304.212 313.41 304.656 303.216 311.511 295.756C317.541 289.195 325.895 285.672 335.098 283.556C348.212 280.541 362.096 281.934 373.576 288.583C379.47 291.996 383.453 297.65 383.723 303.267C384.032 309.769 381.255 315.489 375.503 319.838Z" fill="white"/>
<path d="M424.058 353.666C415.664 360.189 403.383 360.462 394.648 355.111C391.094 352.936 388.928 349.552 388.983 345.889C389.023 342.763 391.229 339.232 394.505 336.962C402.78 331.227 414.895 331.227 423.36 336.844C429.469 340.898 430.08 348.977 424.058 353.658V353.666Z" fill="white"/>
<path d="M457.085 359.953C462.289 358.641 467.279 361.678 468.231 365.696C469.358 370.443 466.676 375.013 461.48 376.229C457.14 377.247 452.293 375.109 450.722 370.782C449.151 366.455 451.412 361.391 457.085 359.961V359.953Z" fill="white"/>
</svg>
