<svg width="58" height="93" viewBox="0 0 58 93" fill="none" xmlns="http://www.w3.org/2000/svg">
<path d="M26.9635 0.631601L0.974904 22.3526C0.35658 22.8685 0 23.631 0 24.439V89.7879C0 91.2901 1.21768 92.504 2.71608 92.504H54.6933C56.1954 92.504 57.4093 91.2863 57.4093 89.7879V24.4352C57.4093 23.631 57.0528 22.8685 56.4344 22.3488L30.4458 0.631601C29.4368 -0.210534 27.9687 -0.210534 26.9597 0.631601H26.9635ZM29.3382 18.9499C26.1517 19.352 23.4698 16.6701 23.8719 13.4836C24.145 11.31 25.9013 9.55747 28.0712 9.28435C31.2576 8.88225 33.9396 11.5642 33.5375 14.7506C33.2643 16.9243 31.508 18.6768 29.3382 18.9499Z" fill="white"/>
<path d="M51.4879 27.9072H5.92157C5.2691 27.9072 4.74182 28.4345 4.74182 29.087V86.576C4.74182 87.2284 5.2691 87.7557 5.92157 87.7557H9.54806C9.9843 73.7884 18.3905 62.6472 28.7047 62.6472C39.019 62.6472 47.4252 73.7884 47.8614 87.7557H51.4879C52.1404 87.7557 52.6676 87.2284 52.6676 86.576V29.0908C52.6676 28.4383 52.1404 27.911 51.4879 27.911V27.9072ZM28.7047 58.0117C23.2157 58.0117 18.766 53.562 18.766 48.073C18.766 42.5839 23.2157 38.1342 28.7047 38.1342C34.1938 38.1342 38.6434 42.5839 38.6434 48.073C38.6434 53.562 34.1938 58.0117 28.7047 58.0117Z" fill="#FF4612"/>
</svg>
