<?xml version="1.0" encoding="UTF-8" standalone="no"?>
<!DOCTYPE svg PUBLIC "-//W3C//DTD SVG 1.1//EN" "http://www.w3.org/Graphics/SVG/1.1/DTD/svg11.dtd">
<svg width="100%" height="100%" viewBox="0 0 265 265" version="1.1" xmlns="http://www.w3.org/2000/svg" xmlns:xlink="http://www.w3.org/1999/xlink" xml:space="preserve" xmlns:serif="http://www.serif.com/" style="fill-rule:evenodd;clip-rule:evenodd;stroke-linejoin:round;">
    <g transform="matrix(1,0,0,1,-2139.65,-1.13687e-13)">
        <g id="R8_Emergency-Bag" transform="matrix(1,0,0,1,2139.65,1.13687e-13)">
            <rect x="0" y="0" width="264.567" height="264.567" style="fill:none;"/>
            <g transform="matrix(0.219418,0,0,0.219418,132.283,136.936)">
                <g transform="matrix(1,0,0,1,-642.667,-642.667)">
                    <g id="bg">
                        <g id="Shape-14" serif:id="Shape 14" transform="matrix(2.66667,0,0,2.66667,0,0)">
                            <path d="M387,87C404.18,95.93 425.28,119.9 414,209C406.23,270.38 397,279 397,279C397,279 406.31,370.29 386,410C375.72,430.11 341.21,424.41 339,413C336.79,401.59 355,258 355,258L373,255C373,255 383.6,212.94 384,186C384.4,159.06 380,129 380,129L339,151L325,112C325,112 369.35,77.83 387,87Z" style="fill:white;"/>
                        </g>
                        <g id="Shape-14-copy" serif:id="Shape 14 copy" transform="matrix(2.66667,0,0,2.66667,0,0)">
                            <path d="M94,90C76.82,98.93 65.89,123.13 70,210C72.93,271.8 87,280 87,280C87,280 77.69,371.29 98,411C108.28,431.11 142.79,425.41 145,414C147.21,402.59 129,259 129,259L111,256C111,256 100.4,213.94 100,187C99.6,160.06 104,130 104,130L142,152L159,118C159,118 111.65,80.83 94,90Z" style="fill:white;"/>
                        </g>
                        <g id="Shape-1" serif:id="Shape 1" transform="matrix(2.66667,0,0,2.66667,0,0)">
                            <path d="M237,437C176.3,436.86 150.89,426.29 145.09,417.04C139.29,407.78 133.69,331.07 132.1,275.29C130.51,219.52 135.7,163.74 155.08,123.57C175.07,82.1 241,86.63 241,86.63C241,86.63 315.51,83.89 327.92,122.57C337.68,152.98 348.85,182.07 351.9,266.31C354.4,335.53 344.36,397.78 338.91,415.04C333.47,432.3 285.53,437.11 237,437Z" style="fill:white;"/>
                        </g>
                    </g>
                    <g>
                        <g id="Shape-11" serif:id="Shape 11" transform="matrix(2.66667,0,0,2.66667,0,0)">
                            <path d="M193,73.2L193,54.21C193,54.21 220.14,45.46 238,47.22C255.86,48.98 285,54.21 285,54.21L287,71.21C287,71.21 257.75,66.35 241,67.21C224.25,68.06 193,73.2 193,73.2Z"/>
                        </g>
                        <g id="Shape-11-copy" serif:id="Shape 11 copy" transform="matrix(2.66667,0,0,2.66667,0,0)">
                            <path d="M147,333.06L146,302.08C146,302.08 177.2,273.26 245,274.09C308.27,274.86 340,302.08 340,302.08L338,333.06C338,333.06 296.99,306.07 241,306.07C184.83,306.07 147,333.06 147,333.06Z"/>
                        </g>
                    </g>
                    <g id="stroke">
                        <g id="Shape-13" serif:id="Shape 13" transform="matrix(2.66667,0,0,2.66667,0,0)">
                            <path d="M242,145.68L242,270.89" style="fill:none;stroke:black;stroke-width:8px;"/>
                        </g>
                        <g id="Shape-7" serif:id="Shape 7" transform="matrix(2.66667,0,0,2.66667,0,0)">
                            <path d="M193,73.2C193,73.2 218.28,66.21 242,66.21C265.72,66.21 286,71.21 286,71.21" style="fill:none;stroke:black;stroke-width:8px;"/>
                        </g>
                        <g id="Shape-10" serif:id="Shape 10" transform="matrix(2.66667,0,0,2.66667,0,0)">
                            <path d="M341,302.08C341,302.08 315.26,273.09 242,273.09C168.74,273.09 145,301.08 145,301.08C145,301.08 143.45,328.97 152,367.04C160.18,403.45 179,412.01 179,412.01C205.83,414.06 242,414.01 242,414.01L307,414.01C307,414.01 326.03,388.88 333,361.04C339.74,334.1 341,302.08 341,302.08Z" style="fill:none;stroke:black;stroke-width:8px;"/>
                        </g>
                        <g id="Shape-8" serif:id="Shape 8" transform="matrix(2.66667,0,0,2.66667,0,0)">
                            <path d="M176,113.18C176,113.18 184.56,143.16 242,143.16C299.44,143.16 316,115.18 316,115.18" style="fill:none;stroke:black;stroke-width:8px;"/>
                        </g>
                        <g id="Shape-6" serif:id="Shape 6" transform="matrix(2.66667,0,0,2.66667,0,0)">
                            <path d="M289,92.19L287,54.21C287,54.21 267.58,47.22 242,47.22C216.42,47.22 192,54.21 192,54.21L191,93.19" style="fill:none;stroke:black;stroke-width:8px;"/>
                        </g>
                        <g id="Group-1-copy" serif:id="Group 1 copy" transform="matrix(2.66667,0,0,2.66667,0,0)">
                            <path id="Shape-5" serif:id="Shape 5" d="M337.91,415.04C337.91,415.04 387.98,440.82 395.86,379.1C402.85,324.34 399.5,306.95 397.86,292.26C396.22,277.57 387.91,256.31 371.88,254.33C357.65,252.57 352.9,256.33 352.9,256.33" style="fill:none;stroke:black;stroke-width:8px;"/>
                            <path id="Shape-2" serif:id="Shape 2" d="M325.92,112.59C325.92,112.59 364.81,81.16 383.87,85.63C402.94,90.11 416.59,118.35 414.84,183.46C413.1,248.56 396.86,282.28 396.86,282.28" style="fill:none;stroke:black;stroke-width:8px;"/>
                            <path id="Shape-4" serif:id="Shape 4" d="M410.04,125.31C400.82,116.77 387.67,122.95 378.22,127.54C376.767,128.273 375.31,129.01 373.85,129.75" style="fill:none;stroke:black;stroke-width:8px;"/>
                            <path id="Shape-3" serif:id="Shape 3" d="M371.88,256.33C371.88,256.33 384.16,201.11 383.87,175.47C383.59,150.18 378.88,126.56 378.88,126.56L337.91,150.52" style="fill:none;stroke:black;stroke-width:8px;"/>
                        </g>
                        <g id="Group-1" serif:id="Group 1" transform="matrix(2.66667,0,0,2.66667,0,0)">
                            <path id="Shape-51" serif:id="Shape 5" d="M144,417.01C144,417.01 95.02,443.82 87.14,382.1C80.15,327.34 83.5,309.94 85.14,295.26C86.78,280.57 95.09,259.31 111.12,257.32C125.35,255.57 130.1,259.32 130.1,259.32" style="fill:none;stroke:black;stroke-width:8px;"/>
                            <path id="Shape-21" serif:id="Shape 2" d="M157.08,115.58C157.08,115.58 118.19,84.15 99.13,88.63C80.06,93.11 66.41,121.35 68.16,186.45C69.9,251.56 86.14,285.27 86.14,285.27" style="fill:none;stroke:black;stroke-width:8px;"/>
                            <path id="Shape-12" serif:id="Shape 12" d="M148,333.06C148,333.06 179.48,308.07 241,308.07C302.52,308.07 337,334.06 337,334.06" style="fill:none;stroke:black;stroke-width:8px;"/>
                            <path id="Shape-41" serif:id="Shape 4" d="M72.96,128.31C82.18,119.76 95.33,125.95 104.78,130.53C106.233,131.27 107.69,132.007 109.15,132.74" style="fill:none;stroke:black;stroke-width:8px;"/>
                            <path id="Shape-31" serif:id="Shape 3" d="M111.12,259.32C111.12,259.32 98.84,204.11 99.13,178.47C99.41,153.18 104.12,129.55 104.12,129.55L142.09,152.51" style="fill:none;stroke:black;stroke-width:8px;"/>
                        </g>
                        <g id="Shape-15" serif:id="Shape 1" transform="matrix(2.66667,0,0,2.66667,0,0)">
                            <path d="M237,437C176.3,436.86 150.89,426.29 145.09,417.04C139.29,407.78 133.69,331.07 132.1,275.29C130.51,219.52 135.7,163.74 155.08,123.57C175.07,82.1 241,86.63 241,86.63C241,86.63 315.51,83.89 327.92,122.57C337.68,152.98 348.85,182.07 351.9,266.31C354.4,335.53 344.36,397.78 338.91,415.04C333.47,432.3 285.53,437.11 237,437Z" style="fill:none;stroke:black;stroke-width:8px;"/>
                        </g>
                    </g>
                </g>
            </g>
        </g>
    </g>
</svg>
