<?xml version="1.0" encoding="UTF-8" standalone="no"?>
<!DOCTYPE svg PUBLIC "-//W3C//DTD SVG 1.1//EN" "http://www.w3.org/Graphics/SVG/1.1/DTD/svg11.dtd">
<svg width="100%" height="100%" viewBox="0 0 265 265" version="1.1" xmlns="http://www.w3.org/2000/svg" xmlns:xlink="http://www.w3.org/1999/xlink" xml:space="preserve" xmlns:serif="http://www.serif.com/" style="fill-rule:evenodd;clip-rule:evenodd;stroke-miterlimit:100;">
    <g transform="matrix(1,0,0,1,-465.368,-5.68434e-14)">
        <g id="R2_Flashlight" transform="matrix(1,0,0,1,465.368,5.68434e-14)">
            <rect x="0" y="0" width="264.567" height="264.567" style="fill:none;"/>
            <g transform="matrix(0.176378,0,0,0.176378,129.886,138.401)">
                <g transform="matrix(1,0,0,1,-642.667,-642.667)">
                    <clipPath id="_clip1">
                        <rect x="0" y="0" width="1285.33" height="1285.33"/>
                    </clipPath>
                    <g clip-path="url(#_clip1)">
                        <g id="Shape-7" serif:id="Shape 7" transform="matrix(2.66667,0,0,2.66667,0,0)">
                            <path d="M40,215C40,215 69.35,222.53 72,265C74.65,307.47 67,376 67,376L64,395C64,395 68.27,401.13 71,396C73.73,390.87 81,360 81,360C81,360 85.58,314.49 86,303C86.42,291.51 82,250 82,250L75,231L59,216L46,212L40,215Z" style="fill:white;"/>
                        </g>
                        <g id="Shape-7-copy" serif:id="Shape 7 copy" transform="matrix(2.66667,0,0,2.66667,0,0)">
                            <path d="M54,385C54,385 50.75,382.9 39,342C27.25,301.1 22,236 22,236L25,224C25,224 21.56,222.41 20,228C18.44,233.59 16,257 16,257C16,257 17.93,298.69 20,310C22.07,321.31 36,358 36,358L42.69,378.25L55,396L54,388L54,385Z" style="fill:white;"/>
                        </g>
                        <g id="Shape-4" serif:id="Shape 4" transform="matrix(2.66667,0,0,2.66667,0,0)">
                            <path d="M29.18,214.87C43.22,203.02 61.85,238 64,249C71.16,285.64 67.31,320.17 63,357C61.82,368.36 57.89,381.84 56.71,393.2C56.71,393.2 29.26,348 22,301C15.54,259.13 15.14,226.72 29.18,214.87Z" style="fill:none;stroke:black;stroke-width:9px;"/>
                        </g>
                        <g id="Shape-4-copy" serif:id="Shape 4 copy" transform="matrix(2.66667,0,0,2.66667,0,0)">
                            <path d="M38,214C52.04,202.15 81.58,227.46 86,251C92.89,287.69 92.26,321.29 86,359C81.85,377.36 75.18,394.64 74,406C74,406 45.49,348.96 38,302C31.67,262.29 23.96,225.85 38,214Z" style="fill:none;stroke:black;stroke-width:9px;"/>
                        </g>
                        <g id="Shape-1" serif:id="Shape 1" transform="matrix(2.66667,0,0,2.66667,0,0)">
                            <path d="M310.95,260.97L110.61,448.17C110.61,448.17 94.98,440.6 81.8,428.61C67.7,415.77 55.99,398.45 55.99,398.45L229.01,186.39L310.95,260.97Z" style="stroke:black;stroke-width:4px;"/>
                        </g>
                        <g id="Shape-3" serif:id="Shape 3" transform="matrix(2.66667,0,0,2.66667,0,0)">
                            <path d="M266.71,302.26L371.23,264.23C371.23,264.23 332.57,230.11 294,195C255.64,160.09 220.93,125.77 220.93,125.77L190.23,232.66C190.23,232.66 202.87,254.15 223.5,272.93C240.82,288.69 266.71,302.26 266.71,302.26Z" style="stroke:black;stroke-width:4px;"/>
                        </g>
                        <g id="Rectangle-1" serif:id="Rectangle 1" transform="matrix(2.66667,0,0,2.66667,0,0)">
                            <path d="M268.29,78.99L413.28,210.95C415.73,213.18 415.91,216.97 413.68,219.43L372.04,265.18C369.81,267.63 366.01,267.8 363.56,265.57L218.58,133.62C216.13,131.39 215.95,127.59 218.18,125.14L259.82,79.39C262.05,76.94 265.84,76.76 268.29,78.99Z" style="stroke:black;stroke-width:4px;"/>
                        </g>
                        <g id="Ellipse-1" serif:id="Ellipse 1" transform="matrix(2.66667,0,0,2.66667,0,0)">
                            <path d="M360.22,122.71C402.45,161.15 427.79,202.09 416.81,214.16C405.82,226.23 362.68,204.85 320.45,166.41C278.21,127.96 252.87,87.02 263.86,74.95C274.84,62.88 317.98,84.26 360.22,122.71Z" style="fill:white;stroke:black;stroke-width:4px;"/>
                        </g>
                        <g id="Ellipse-1-copy" serif:id="Ellipse 1 copy" transform="matrix(2.66667,0,0,2.66667,0,0)">
                            <path d="M367.22,116.71C409.46,155.15 434.79,196.09 423.81,208.16C412.82,220.23 369.68,198.85 327.45,160.41C285.21,121.96 259.87,81.02 270.86,68.95C281.84,56.88 324.98,78.26 367.22,116.71Z" style="stroke:black;stroke-width:4px;"/>
                        </g>
                        <g id="Shape-5" serif:id="Shape 5" transform="matrix(2.66667,0,0,2.66667,0,0)">
                            <path d="M215,130C215.06,130.07 240.11,180.78 279,217C318.45,253.75 373,266 373,266" style="fill:none;stroke:white;stroke-width:10px;stroke-linecap:round;"/>
                        </g>
                        <g id="Ellipse-1-copy-2" serif:id="Ellipse 1 copy 2" transform="matrix(2.66667,0,0,2.66667,0,0)">
                            <path d="M360.22,122.71C402.45,161.15 427.79,202.09 416.81,214.16C405.82,226.23 362.68,204.85 320.45,166.41C278.21,127.96 252.87,87.02 263.86,74.95C274.84,62.88 317.98,84.26 360.22,122.71Z" style="fill:white;stroke:black;stroke-width:4px;"/>
                        </g>
                        <g id="Shape-6" serif:id="Shape 6" transform="matrix(2.66667,0,0,2.66667,0,0)">
                            <path d="M184,236C184,236 185.7,258.88 210,283C235.62,308.43 269,308 269,308" style="fill:none;stroke:white;stroke-width:10px;"/>
                        </g>
                        <g id="Shape-9" serif:id="Shape 9" transform="matrix(2.66667,0,0,2.66667,0,0)">
                            <path d="M326.82,18.44L311.28,56.85" style="fill:none;stroke:black;stroke-width:10px;"/>
                        </g>
                        <g id="Shape-9-copy" serif:id="Shape 9 copy" transform="matrix(2.66667,0,0,2.66667,0,0)">
                            <path d="M380.62,24.57L347.66,73.31" style="fill:none;stroke:black;stroke-width:10px;"/>
                        </g>
                        <g id="Shape-9-copy-2" serif:id="Shape 9 copy 2" transform="matrix(2.66667,0,0,2.66667,0,0)">
                            <path d="M429.94,42.54L383.64,99.75" style="fill:none;stroke:black;stroke-width:10px;"/>
                        </g>
                        <g id="Shape-9-copy-3" serif:id="Shape 9 copy 3" transform="matrix(2.66667,0,0,2.66667,0,0)">
                            <path d="M470.43,139.8L434.13,159.78" style="fill:none;stroke:black;stroke-width:10px;"/>
                        </g>
                        <g id="Shape-9-copy-4" serif:id="Shape 9 copy 4" transform="matrix(2.66667,0,0,2.66667,0,0)">
                            <path d="M457.95,87.11L413.47,125.62" style="fill:none;stroke:black;stroke-width:10px;"/>
                        </g>
                    </g>
                </g>
            </g>
        </g>
    </g>
</svg>
