<?xml version="1.0" encoding="UTF-8" standalone="no"?>
<!DOCTYPE svg PUBLIC "-//W3C//DTD SVG 1.1//EN" "http://www.w3.org/Graphics/SVG/1.1/DTD/svg11.dtd">
<svg width="100%" height="100%" viewBox="0 0 265 265" version="1.1" xmlns="http://www.w3.org/2000/svg" xmlns:xlink="http://www.w3.org/1999/xlink" xml:space="preserve" xmlns:serif="http://www.serif.com/" style="fill-rule:evenodd;clip-rule:evenodd;stroke-linejoin:round;stroke-miterlimit:2;">
    <g transform="matrix(1,0,0,1,-306.368,-5.68434e-14)">
        <g id="R2_Flashlight" transform="matrix(1,0,0,1,306.368,5.68434e-14)">
            <rect x="0" y="0" width="264.567" height="264.567" style="fill:none;"/>
            <g transform="matrix(1,0,0,1,-1282.53,-554.246)">
                <g transform="matrix(42.6667,0,0,42.6667,1388.07,643.436)">
                    <path d="M0.149,0.01C0.129,0.01 0.113,0.003 0.1,-0.01C0.087,-0.023 0.08,-0.039 0.08,-0.059L0.08,-0.631C0.08,-0.651 0.087,-0.668 0.1,-0.681C0.113,-0.694 0.129,-0.7 0.149,-0.7L0.218,-0.7L0.218,-0.059C0.218,-0.039 0.211,-0.023 0.198,-0.01C0.185,0.003 0.169,0.01 0.149,0.01ZM0.189,-0.271L0.189,-0.395L0.368,-0.395C0.394,-0.395 0.415,-0.403 0.431,-0.42C0.447,-0.436 0.455,-0.457 0.455,-0.482C0.455,-0.513 0.445,-0.536 0.426,-0.552C0.406,-0.568 0.384,-0.576 0.36,-0.576L0.189,-0.576L0.189,-0.7L0.37,-0.7C0.413,-0.7 0.452,-0.691 0.486,-0.673C0.519,-0.655 0.546,-0.63 0.566,-0.598C0.586,-0.565 0.596,-0.528 0.596,-0.485C0.596,-0.442 0.586,-0.404 0.567,-0.372C0.547,-0.34 0.521,-0.315 0.489,-0.298C0.456,-0.28 0.42,-0.271 0.38,-0.271L0.189,-0.271ZM0.546,0.01C0.533,0.01 0.521,0.007 0.511,0C0.5,-0.006 0.493,-0.015 0.487,-0.027L0.348,-0.318L0.479,-0.346L0.605,-0.087C0.61,-0.077 0.612,-0.067 0.612,-0.057C0.612,-0.038 0.606,-0.023 0.593,-0.01C0.58,0.003 0.565,0.01 0.546,0.01Z" style="fill-rule:nonzero;"/>
                </g>
                <g transform="matrix(42.6667,0,0,42.6667,1416.15,643.436)">
                    <path d="M0.132,-0C0.11,-0 0.092,-0.007 0.077,-0.02C0.061,-0.033 0.054,-0.052 0.054,-0.078C0.054,-0.114 0.06,-0.146 0.073,-0.174C0.085,-0.202 0.102,-0.228 0.123,-0.25C0.144,-0.273 0.167,-0.294 0.192,-0.312C0.217,-0.331 0.241,-0.349 0.266,-0.365C0.29,-0.382 0.312,-0.398 0.333,-0.414C0.354,-0.43 0.371,-0.446 0.384,-0.463C0.396,-0.48 0.403,-0.499 0.403,-0.519C0.403,-0.535 0.398,-0.549 0.39,-0.56C0.382,-0.571 0.37,-0.58 0.355,-0.586C0.34,-0.592 0.322,-0.595 0.301,-0.595C0.279,-0.595 0.261,-0.592 0.245,-0.586C0.229,-0.58 0.216,-0.572 0.205,-0.561C0.195,-0.55 0.186,-0.538 0.179,-0.523C0.172,-0.51 0.165,-0.499 0.155,-0.492C0.146,-0.484 0.135,-0.481 0.121,-0.481C0.104,-0.481 0.09,-0.487 0.078,-0.498C0.066,-0.51 0.06,-0.525 0.06,-0.544C0.06,-0.566 0.067,-0.587 0.08,-0.607C0.093,-0.628 0.111,-0.646 0.135,-0.662C0.158,-0.679 0.185,-0.692 0.216,-0.702C0.247,-0.711 0.28,-0.716 0.315,-0.716C0.359,-0.716 0.398,-0.708 0.431,-0.692C0.464,-0.675 0.489,-0.653 0.508,-0.623C0.526,-0.594 0.536,-0.56 0.537,-0.521C0.538,-0.488 0.533,-0.458 0.522,-0.433C0.51,-0.407 0.495,-0.384 0.477,-0.364C0.458,-0.343 0.438,-0.325 0.415,-0.308C0.392,-0.291 0.369,-0.275 0.346,-0.26C0.325,-0.247 0.304,-0.233 0.284,-0.219C0.263,-0.206 0.246,-0.192 0.232,-0.177C0.218,-0.162 0.212,-0.145 0.212,-0.126L0.212,-0.125L0.492,-0.127C0.511,-0.127 0.526,-0.12 0.539,-0.107C0.552,-0.094 0.558,-0.079 0.558,-0.062C0.558,-0.044 0.552,-0.03 0.539,-0.018C0.526,-0.006 0.511,-0 0.492,-0L0.132,-0Z" style="fill-rule:nonzero;"/>
                </g>
                <g transform="matrix(42.6667,0,0,42.6667,1441.56,643.436)">
                </g>
                <g transform="matrix(42.6667,0,0,42.6667,1350.79,718.103)">
                    <path d="M0.149,0.01C0.129,0.01 0.112,0.004 0.099,-0.01C0.086,-0.023 0.08,-0.039 0.08,-0.059L0.08,-0.631C0.08,-0.65 0.087,-0.666 0.1,-0.68C0.114,-0.693 0.13,-0.7 0.149,-0.7L0.218,-0.7L0.218,-0.059C0.218,-0.039 0.211,-0.023 0.198,-0.01C0.185,0.004 0.169,0.01 0.149,0.01ZM0.171,-0.576L0.171,-0.7L0.448,-0.7C0.466,-0.7 0.481,-0.694 0.492,-0.683C0.504,-0.671 0.51,-0.656 0.51,-0.638C0.51,-0.62 0.504,-0.605 0.492,-0.593C0.481,-0.582 0.466,-0.576 0.448,-0.576L0.171,-0.576ZM0.172,-0.286L0.172,-0.411L0.429,-0.411C0.447,-0.411 0.462,-0.405 0.473,-0.393C0.485,-0.381 0.491,-0.366 0.491,-0.348C0.491,-0.33 0.485,-0.315 0.473,-0.303C0.462,-0.292 0.447,-0.286 0.429,-0.286L0.172,-0.286Z" style="fill-rule:nonzero;"/>
                </g>
                <g transform="matrix(42.6667,0,0,42.6667,1374.02,718.103)">
                    <path d="M0.149,-0C0.13,-0 0.114,-0.007 0.1,-0.02C0.087,-0.034 0.08,-0.05 0.08,-0.069L0.08,-0.641C0.08,-0.66 0.086,-0.676 0.099,-0.69C0.111,-0.703 0.127,-0.71 0.146,-0.71C0.165,-0.71 0.181,-0.703 0.196,-0.69C0.21,-0.676 0.218,-0.66 0.218,-0.641L0.218,-0.127L0.45,-0.127C0.468,-0.127 0.483,-0.121 0.495,-0.11C0.506,-0.098 0.512,-0.083 0.512,-0.064C0.512,-0.045 0.506,-0.03 0.495,-0.018C0.483,-0.006 0.468,-0 0.45,-0L0.149,-0Z" style="fill-rule:nonzero;"/>
                </g>
                <g transform="matrix(42.6667,0,0,42.6667,1397.17,718.103)">
                    <path d="M0.089,0.01C0.071,0.01 0.056,0.005 0.044,-0.006C0.033,-0.016 0.025,-0.029 0.022,-0.044C0.019,-0.059 0.02,-0.073 0.024,-0.085L0.242,-0.661C0.248,-0.678 0.257,-0.69 0.269,-0.698C0.281,-0.706 0.296,-0.71 0.313,-0.71C0.33,-0.71 0.344,-0.706 0.356,-0.698C0.367,-0.69 0.376,-0.678 0.382,-0.661L0.599,-0.085C0.604,-0.071 0.605,-0.057 0.601,-0.042C0.597,-0.028 0.59,-0.015 0.578,-0.005C0.567,0.005 0.552,0.01 0.535,0.01C0.52,0.01 0.506,0.006 0.494,-0.002C0.482,-0.009 0.473,-0.02 0.469,-0.033L0.295,-0.567L0.328,-0.567L0.155,-0.033C0.151,-0.02 0.142,-0.009 0.13,-0.002C0.118,0.006 0.104,0.01 0.089,0.01ZM0.14,-0.16L0.14,-0.284L0.472,-0.284L0.472,-0.16L0.14,-0.16Z" style="fill-rule:nonzero;"/>
                </g>
                <g transform="matrix(42.6667,0,0,42.6667,1423.76,718.103)">
                    <path d="M0.303,0.015C0.252,0.015 0.206,0.007 0.166,-0.009C0.126,-0.026 0.095,-0.047 0.072,-0.074C0.049,-0.1 0.038,-0.129 0.038,-0.16C0.038,-0.178 0.043,-0.194 0.055,-0.206C0.067,-0.218 0.083,-0.224 0.104,-0.224C0.122,-0.224 0.135,-0.219 0.143,-0.209C0.152,-0.199 0.16,-0.188 0.168,-0.175C0.179,-0.157 0.195,-0.141 0.216,-0.128C0.236,-0.115 0.264,-0.109 0.299,-0.109C0.319,-0.109 0.337,-0.111 0.354,-0.116C0.37,-0.121 0.384,-0.13 0.394,-0.142C0.404,-0.154 0.409,-0.169 0.409,-0.189C0.409,-0.208 0.404,-0.223 0.393,-0.235C0.383,-0.247 0.368,-0.258 0.349,-0.267C0.329,-0.277 0.306,-0.286 0.279,-0.297C0.256,-0.306 0.232,-0.315 0.208,-0.326C0.184,-0.336 0.161,-0.35 0.141,-0.365C0.121,-0.381 0.105,-0.401 0.093,-0.425C0.08,-0.45 0.074,-0.48 0.074,-0.517C0.074,-0.56 0.084,-0.597 0.104,-0.626C0.124,-0.655 0.15,-0.678 0.184,-0.693C0.218,-0.708 0.256,-0.715 0.299,-0.715C0.33,-0.715 0.358,-0.711 0.384,-0.704C0.41,-0.696 0.433,-0.686 0.453,-0.672C0.472,-0.659 0.487,-0.643 0.498,-0.626C0.509,-0.609 0.515,-0.59 0.516,-0.571C0.516,-0.551 0.51,-0.536 0.499,-0.523C0.488,-0.511 0.472,-0.505 0.453,-0.505C0.438,-0.505 0.427,-0.507 0.42,-0.513C0.412,-0.518 0.405,-0.527 0.397,-0.539C0.389,-0.555 0.377,-0.568 0.362,-0.577C0.347,-0.587 0.327,-0.591 0.3,-0.591C0.283,-0.591 0.268,-0.589 0.255,-0.583C0.242,-0.578 0.231,-0.57 0.223,-0.56C0.216,-0.55 0.212,-0.538 0.212,-0.523C0.212,-0.503 0.218,-0.487 0.23,-0.474C0.243,-0.461 0.259,-0.45 0.279,-0.441C0.299,-0.431 0.321,-0.422 0.345,-0.413C0.372,-0.402 0.397,-0.391 0.421,-0.379C0.445,-0.367 0.467,-0.353 0.486,-0.337C0.505,-0.321 0.52,-0.302 0.531,-0.279C0.541,-0.256 0.547,-0.228 0.547,-0.196C0.547,-0.15 0.536,-0.111 0.515,-0.08C0.494,-0.048 0.465,-0.025 0.428,-0.009C0.391,0.007 0.349,0.015 0.303,0.015Z" style="fill-rule:nonzero;"/>
                </g>
                <g transform="matrix(42.6667,0,0,42.6667,1448.68,718.103)">
                    <path d="M0.149,0.01C0.129,0.01 0.112,0.003 0.099,-0.01C0.086,-0.023 0.08,-0.039 0.08,-0.059L0.08,-0.639C0.08,-0.659 0.086,-0.675 0.099,-0.688C0.112,-0.701 0.129,-0.708 0.149,-0.708C0.169,-0.708 0.185,-0.701 0.198,-0.688C0.211,-0.675 0.218,-0.659 0.218,-0.639L0.218,-0.059C0.218,-0.039 0.211,-0.023 0.198,-0.01C0.185,0.003 0.169,0.01 0.149,0.01ZM0.558,0.01C0.538,0.01 0.522,0.003 0.509,-0.01C0.496,-0.023 0.489,-0.039 0.489,-0.059L0.489,-0.639C0.489,-0.659 0.496,-0.675 0.509,-0.688C0.522,-0.701 0.538,-0.708 0.558,-0.708C0.578,-0.708 0.594,-0.701 0.607,-0.688C0.62,-0.675 0.627,-0.659 0.627,-0.639L0.627,-0.059C0.627,-0.039 0.62,-0.023 0.607,-0.01C0.594,0.003 0.578,0.01 0.558,0.01ZM0.147,-0.294L0.147,-0.419L0.57,-0.419L0.57,-0.294L0.147,-0.294Z" style="fill-rule:nonzero;"/>
                </g>
                <g transform="matrix(42.6667,0,0,42.6667,1478.84,718.103)">
                </g>
                <g transform="matrix(42.6667,0,0,42.6667,1354.66,760.77)">
                    <path d="M0.149,-0C0.13,-0 0.114,-0.007 0.1,-0.02C0.087,-0.034 0.08,-0.05 0.08,-0.069L0.08,-0.641C0.08,-0.66 0.086,-0.676 0.099,-0.69C0.111,-0.703 0.127,-0.71 0.146,-0.71C0.165,-0.71 0.181,-0.703 0.196,-0.69C0.21,-0.676 0.218,-0.66 0.218,-0.641L0.218,-0.127L0.45,-0.127C0.468,-0.127 0.483,-0.121 0.495,-0.11C0.506,-0.098 0.512,-0.083 0.512,-0.064C0.512,-0.045 0.506,-0.03 0.495,-0.018C0.483,-0.006 0.468,-0 0.45,-0L0.149,-0Z" style="fill-rule:nonzero;"/>
                </g>
                <g transform="matrix(42.6667,0,0,42.6667,1377.82,760.77)">
                    <path d="M0.149,0.01C0.129,0.01 0.112,0.004 0.099,-0.01C0.086,-0.023 0.08,-0.039 0.08,-0.059L0.08,-0.641C0.08,-0.661 0.086,-0.678 0.099,-0.691C0.112,-0.704 0.129,-0.71 0.149,-0.71C0.169,-0.71 0.185,-0.704 0.198,-0.691C0.211,-0.678 0.218,-0.661 0.218,-0.641L0.218,-0.059C0.218,-0.039 0.211,-0.023 0.198,-0.01C0.185,0.004 0.169,0.01 0.149,0.01Z" style="fill-rule:nonzero;"/>
                </g>
                <g transform="matrix(42.6667,0,0,42.6667,1390.51,760.77)">
                    <path d="M0.378,0.015C0.314,0.015 0.258,-0 0.21,-0.03C0.162,-0.06 0.124,-0.103 0.096,-0.159C0.069,-0.214 0.055,-0.279 0.055,-0.355C0.055,-0.409 0.063,-0.458 0.079,-0.502C0.094,-0.546 0.116,-0.584 0.143,-0.616C0.171,-0.648 0.203,-0.672 0.24,-0.689C0.278,-0.706 0.318,-0.715 0.362,-0.715C0.39,-0.715 0.418,-0.711 0.445,-0.704C0.472,-0.697 0.497,-0.687 0.519,-0.674C0.541,-0.661 0.559,-0.645 0.573,-0.626C0.586,-0.607 0.594,-0.586 0.595,-0.562C0.596,-0.543 0.591,-0.528 0.58,-0.515C0.569,-0.503 0.554,-0.497 0.535,-0.497C0.52,-0.497 0.507,-0.501 0.497,-0.509C0.487,-0.516 0.478,-0.526 0.472,-0.537C0.464,-0.552 0.453,-0.566 0.439,-0.576C0.425,-0.587 0.403,-0.592 0.374,-0.592C0.338,-0.592 0.307,-0.583 0.28,-0.564C0.253,-0.546 0.232,-0.519 0.217,-0.484C0.202,-0.448 0.194,-0.405 0.194,-0.352C0.194,-0.303 0.202,-0.261 0.217,-0.224C0.233,-0.188 0.254,-0.16 0.282,-0.14C0.309,-0.12 0.342,-0.11 0.379,-0.11C0.402,-0.11 0.423,-0.114 0.441,-0.122C0.459,-0.13 0.475,-0.141 0.487,-0.153L0.487,-0.262L0.437,-0.262C0.418,-0.262 0.4,-0.268 0.385,-0.28C0.369,-0.292 0.361,-0.307 0.361,-0.326C0.361,-0.344 0.369,-0.36 0.385,-0.372C0.401,-0.384 0.418,-0.389 0.438,-0.389L0.565,-0.388C0.585,-0.387 0.601,-0.381 0.611,-0.371C0.621,-0.361 0.626,-0.345 0.626,-0.325L0.626,-0.142C0.626,-0.133 0.625,-0.124 0.624,-0.118C0.622,-0.111 0.619,-0.105 0.614,-0.099C0.589,-0.064 0.557,-0.037 0.518,-0.016C0.479,0.005 0.432,0.015 0.378,0.015Z" style="fill-rule:nonzero;"/>
                </g>
                <g transform="matrix(42.6667,0,0,42.6667,1419.63,760.77)">
                    <path d="M0.149,0.01C0.129,0.01 0.112,0.003 0.099,-0.01C0.086,-0.023 0.08,-0.039 0.08,-0.059L0.08,-0.639C0.08,-0.659 0.086,-0.675 0.099,-0.688C0.112,-0.701 0.129,-0.708 0.149,-0.708C0.169,-0.708 0.185,-0.701 0.198,-0.688C0.211,-0.675 0.218,-0.659 0.218,-0.639L0.218,-0.059C0.218,-0.039 0.211,-0.023 0.198,-0.01C0.185,0.003 0.169,0.01 0.149,0.01ZM0.558,0.01C0.538,0.01 0.522,0.003 0.509,-0.01C0.496,-0.023 0.489,-0.039 0.489,-0.059L0.489,-0.639C0.489,-0.659 0.496,-0.675 0.509,-0.688C0.522,-0.701 0.538,-0.708 0.558,-0.708C0.578,-0.708 0.594,-0.701 0.607,-0.688C0.62,-0.675 0.627,-0.659 0.627,-0.639L0.627,-0.059C0.627,-0.039 0.62,-0.023 0.607,-0.01C0.594,0.003 0.578,0.01 0.558,0.01ZM0.147,-0.294L0.147,-0.419L0.57,-0.419L0.57,-0.294L0.147,-0.294Z" style="fill-rule:nonzero;"/>
                </g>
                <g transform="matrix(42.6667,0,0,42.6667,1449.79,760.77)">
                    <path d="M0.081,-0.568C0.062,-0.568 0.047,-0.575 0.034,-0.587C0.021,-0.6 0.015,-0.615 0.015,-0.634C0.015,-0.653 0.021,-0.669 0.034,-0.681C0.047,-0.694 0.062,-0.7 0.081,-0.7L0.509,-0.7C0.528,-0.7 0.544,-0.694 0.556,-0.681C0.569,-0.669 0.575,-0.653 0.575,-0.634C0.575,-0.615 0.569,-0.6 0.556,-0.587C0.544,-0.575 0.528,-0.568 0.509,-0.568L0.081,-0.568ZM0.295,0.01C0.275,0.01 0.259,0.004 0.246,-0.01C0.233,-0.023 0.227,-0.039 0.227,-0.059L0.227,-0.632L0.364,-0.632L0.364,-0.059C0.364,-0.039 0.358,-0.023 0.345,-0.01C0.332,0.004 0.315,0.01 0.295,0.01Z" style="fill-rule:nonzero;"/>
                </g>
                <g transform="matrix(42.6667,0,0,42.6667,1474.96,760.77)">
                </g>
            </g>
        </g>
    </g>
</svg>
