<?xml version="1.0" encoding="UTF-8" standalone="no"?>
<!DOCTYPE svg PUBLIC "-//W3C//DTD SVG 1.1//EN" "http://www.w3.org/Graphics/SVG/1.1/DTD/svg11.dtd">
<svg width="100%" height="100%" viewBox="0 0 265 265" version="1.1" xmlns="http://www.w3.org/2000/svg" xmlns:xlink="http://www.w3.org/1999/xlink" xml:space="preserve" xmlns:serif="http://www.serif.com/" style="fill-rule:evenodd;clip-rule:evenodd;stroke-linejoin:round;stroke-miterlimit:2;">
    <g transform="matrix(1,0,0,1,-7.36731,-5.68434e-14)">
        <g id="R1_Food-Water" transform="matrix(1,0,0,1,7.36731,5.68434e-14)">
            <rect x="0" y="0" width="264.567" height="264.567" style="fill:none;"/>
            <g transform="matrix(1,0,0,1,-1282.53,-554.246)">
                <g transform="matrix(42.6667,0,0,42.6667,1389.68,643.436)">
                    <path d="M0.149,0.01C0.129,0.01 0.113,0.003 0.1,-0.01C0.087,-0.023 0.08,-0.039 0.08,-0.059L0.08,-0.631C0.08,-0.651 0.087,-0.668 0.1,-0.681C0.113,-0.694 0.129,-0.7 0.149,-0.7L0.218,-0.7L0.218,-0.059C0.218,-0.039 0.211,-0.023 0.198,-0.01C0.185,0.003 0.169,0.01 0.149,0.01ZM0.189,-0.271L0.189,-0.395L0.368,-0.395C0.394,-0.395 0.415,-0.403 0.431,-0.42C0.447,-0.436 0.455,-0.457 0.455,-0.482C0.455,-0.513 0.445,-0.536 0.426,-0.552C0.406,-0.568 0.384,-0.576 0.36,-0.576L0.189,-0.576L0.189,-0.7L0.37,-0.7C0.413,-0.7 0.452,-0.691 0.486,-0.673C0.519,-0.655 0.546,-0.63 0.566,-0.598C0.586,-0.565 0.596,-0.528 0.596,-0.485C0.596,-0.442 0.586,-0.404 0.567,-0.372C0.547,-0.34 0.521,-0.315 0.489,-0.298C0.456,-0.28 0.42,-0.271 0.38,-0.271L0.189,-0.271ZM0.546,0.01C0.533,0.01 0.521,0.007 0.511,0C0.5,-0.006 0.493,-0.015 0.487,-0.027L0.348,-0.318L0.479,-0.346L0.605,-0.087C0.61,-0.077 0.612,-0.067 0.612,-0.057C0.612,-0.038 0.606,-0.023 0.593,-0.01C0.58,0.003 0.565,0.01 0.546,0.01Z" style="fill-rule:nonzero;"/>
                </g>
                <g transform="matrix(42.6667,0,0,42.6667,1417.76,643.436)">
                    <path d="M0.211,-0.075L0.215,-0.56L0.273,-0.579L0.186,-0.488C0.173,-0.475 0.162,-0.466 0.151,-0.462C0.14,-0.457 0.13,-0.454 0.121,-0.454C0.104,-0.454 0.089,-0.461 0.077,-0.473C0.064,-0.486 0.058,-0.501 0.058,-0.518C0.058,-0.537 0.065,-0.553 0.08,-0.565L0.22,-0.686C0.226,-0.692 0.234,-0.697 0.243,-0.702C0.252,-0.707 0.263,-0.709 0.275,-0.71C0.295,-0.711 0.311,-0.705 0.324,-0.694C0.337,-0.682 0.343,-0.665 0.343,-0.643L0.345,-0.075L0.211,-0.075ZM0.12,-0C0.102,-0 0.087,-0.006 0.075,-0.019C0.063,-0.031 0.057,-0.046 0.057,-0.063C0.057,-0.08 0.063,-0.094 0.075,-0.107C0.087,-0.119 0.102,-0.125 0.12,-0.125L0.418,-0.125C0.436,-0.125 0.451,-0.119 0.463,-0.107C0.474,-0.094 0.48,-0.08 0.48,-0.063C0.48,-0.046 0.474,-0.031 0.463,-0.019C0.451,-0.006 0.436,-0 0.418,-0L0.12,-0Z" style="fill-rule:nonzero;"/>
                </g>
                <g transform="matrix(42.6667,0,0,42.6667,1439.95,643.436)">
                </g>
                <g transform="matrix(42.6667,0,0,42.6667,1358.31,718.103)">
                    <path d="M0.149,0.01C0.129,0.01 0.112,0.004 0.099,-0.01C0.086,-0.023 0.08,-0.039 0.08,-0.059L0.08,-0.631C0.08,-0.65 0.087,-0.666 0.1,-0.68C0.114,-0.693 0.13,-0.7 0.149,-0.7L0.218,-0.7L0.218,-0.059C0.218,-0.039 0.211,-0.023 0.198,-0.01C0.185,0.004 0.169,0.01 0.149,0.01ZM0.171,-0.576L0.171,-0.7L0.448,-0.7C0.466,-0.7 0.481,-0.694 0.492,-0.683C0.504,-0.671 0.51,-0.656 0.51,-0.638C0.51,-0.62 0.504,-0.605 0.492,-0.593C0.481,-0.582 0.466,-0.576 0.448,-0.576L0.171,-0.576ZM0.172,-0.286L0.172,-0.411L0.429,-0.411C0.447,-0.411 0.462,-0.405 0.473,-0.393C0.485,-0.381 0.491,-0.366 0.491,-0.348C0.491,-0.33 0.485,-0.315 0.473,-0.303C0.462,-0.292 0.447,-0.286 0.429,-0.286L0.172,-0.286Z" style="fill-rule:nonzero;"/>
                </g>
                <g transform="matrix(42.6667,0,0,42.6667,1381.12,718.103)">
                    <path d="M0.363,0.015C0.303,0.015 0.25,-0 0.204,-0.031C0.158,-0.061 0.121,-0.104 0.095,-0.159C0.068,-0.213 0.055,-0.277 0.055,-0.349C0.055,-0.421 0.069,-0.485 0.095,-0.54C0.122,-0.595 0.158,-0.638 0.205,-0.669C0.251,-0.7 0.304,-0.715 0.363,-0.715C0.423,-0.715 0.476,-0.7 0.522,-0.669C0.568,-0.638 0.605,-0.595 0.631,-0.54C0.658,-0.485 0.671,-0.421 0.671,-0.349C0.671,-0.277 0.658,-0.213 0.631,-0.159C0.605,-0.104 0.569,-0.061 0.522,-0.031C0.476,-0 0.423,0.015 0.363,0.015ZM0.363,-0.109C0.399,-0.109 0.43,-0.118 0.455,-0.137C0.48,-0.156 0.499,-0.184 0.512,-0.22C0.526,-0.256 0.532,-0.299 0.532,-0.349C0.532,-0.399 0.526,-0.442 0.512,-0.479C0.499,-0.515 0.48,-0.543 0.455,-0.562C0.43,-0.582 0.399,-0.591 0.363,-0.591C0.328,-0.591 0.297,-0.582 0.272,-0.562C0.247,-0.543 0.227,-0.515 0.214,-0.479C0.201,-0.442 0.194,-0.399 0.194,-0.349C0.194,-0.299 0.201,-0.256 0.214,-0.22C0.227,-0.184 0.247,-0.156 0.272,-0.137C0.297,-0.118 0.328,-0.109 0.363,-0.109Z" style="fill-rule:nonzero;"/>
                </g>
                <g transform="matrix(42.6667,0,0,42.6667,1411.67,718.103)">
                    <path d="M0.363,0.015C0.303,0.015 0.25,-0 0.204,-0.031C0.158,-0.061 0.121,-0.104 0.095,-0.159C0.068,-0.213 0.055,-0.277 0.055,-0.349C0.055,-0.421 0.069,-0.485 0.095,-0.54C0.122,-0.595 0.158,-0.638 0.205,-0.669C0.251,-0.7 0.304,-0.715 0.363,-0.715C0.423,-0.715 0.476,-0.7 0.522,-0.669C0.568,-0.638 0.605,-0.595 0.631,-0.54C0.658,-0.485 0.671,-0.421 0.671,-0.349C0.671,-0.277 0.658,-0.213 0.631,-0.159C0.605,-0.104 0.569,-0.061 0.522,-0.031C0.476,-0 0.423,0.015 0.363,0.015ZM0.363,-0.109C0.399,-0.109 0.43,-0.118 0.455,-0.137C0.48,-0.156 0.499,-0.184 0.512,-0.22C0.526,-0.256 0.532,-0.299 0.532,-0.349C0.532,-0.399 0.526,-0.442 0.512,-0.479C0.499,-0.515 0.48,-0.543 0.455,-0.562C0.43,-0.582 0.399,-0.591 0.363,-0.591C0.328,-0.591 0.297,-0.582 0.272,-0.562C0.247,-0.543 0.227,-0.515 0.214,-0.479C0.201,-0.442 0.194,-0.399 0.194,-0.349C0.194,-0.299 0.201,-0.256 0.214,-0.22C0.227,-0.184 0.247,-0.156 0.272,-0.137C0.297,-0.118 0.328,-0.109 0.363,-0.109Z" style="fill-rule:nonzero;"/>
                </g>
                <g transform="matrix(42.6667,0,0,42.6667,1442.64,718.103)">
                    <path d="M0.149,-0C0.129,-0 0.113,-0.007 0.1,-0.02C0.087,-0.033 0.08,-0.049 0.08,-0.069L0.08,-0.631C0.08,-0.651 0.087,-0.668 0.1,-0.681C0.113,-0.694 0.129,-0.7 0.149,-0.7L0.353,-0.7C0.409,-0.7 0.458,-0.685 0.5,-0.656C0.541,-0.626 0.574,-0.585 0.597,-0.533C0.62,-0.48 0.632,-0.419 0.632,-0.35C0.632,-0.281 0.62,-0.22 0.596,-0.168C0.571,-0.115 0.537,-0.074 0.493,-0.044C0.448,-0.015 0.396,-0 0.335,-0L0.149,-0ZM0.218,-0.125L0.334,-0.125C0.369,-0.125 0.398,-0.133 0.422,-0.152C0.445,-0.169 0.463,-0.195 0.475,-0.229C0.487,-0.263 0.493,-0.303 0.493,-0.35C0.493,-0.397 0.487,-0.437 0.475,-0.471C0.463,-0.504 0.447,-0.53 0.425,-0.549C0.403,-0.567 0.377,-0.576 0.347,-0.576L0.218,-0.576L0.218,-0.125Z" style="fill-rule:nonzero;"/>
                </g>
                <g transform="matrix(42.6667,0,0,42.6667,1471.31,718.103)">
                </g>
                <g transform="matrix(42.6667,0,0,42.6667,1346.52,760.77)">
                    <path d="M0.24,0.011C0.222,0.011 0.207,0.004 0.194,-0.01C0.182,-0.024 0.174,-0.04 0.169,-0.058L0.024,-0.62C0.024,-0.624 0.023,-0.628 0.022,-0.632C0.02,-0.637 0.02,-0.641 0.02,-0.645C0.02,-0.664 0.027,-0.68 0.04,-0.692C0.053,-0.705 0.07,-0.711 0.09,-0.711C0.106,-0.711 0.121,-0.707 0.134,-0.698C0.147,-0.69 0.154,-0.679 0.157,-0.665L0.268,-0.154L0.225,-0.156L0.349,-0.662C0.352,-0.676 0.36,-0.688 0.372,-0.697C0.385,-0.706 0.399,-0.711 0.415,-0.711C0.43,-0.711 0.444,-0.706 0.457,-0.697C0.469,-0.688 0.477,-0.676 0.48,-0.662L0.605,-0.156L0.562,-0.154L0.673,-0.665C0.676,-0.679 0.683,-0.69 0.696,-0.698C0.709,-0.707 0.723,-0.711 0.74,-0.711C0.76,-0.711 0.776,-0.705 0.789,-0.692C0.803,-0.68 0.809,-0.664 0.809,-0.645C0.809,-0.641 0.809,-0.637 0.808,-0.632C0.807,-0.628 0.806,-0.624 0.805,-0.62L0.661,-0.058C0.656,-0.04 0.648,-0.024 0.636,-0.01C0.623,0.004 0.608,0.011 0.589,0.011C0.571,0.011 0.555,0.004 0.543,-0.01C0.53,-0.024 0.522,-0.04 0.517,-0.058L0.403,-0.473L0.426,-0.473L0.313,-0.058C0.308,-0.04 0.299,-0.024 0.287,-0.01C0.274,0.004 0.259,0.011 0.24,0.011Z" style="fill-rule:nonzero;"/>
                </g>
                <g transform="matrix(42.6667,0,0,42.6667,1380.62,760.77)">
                    <path d="M0.089,0.01C0.071,0.01 0.056,0.005 0.044,-0.006C0.033,-0.016 0.025,-0.029 0.022,-0.044C0.019,-0.059 0.02,-0.073 0.024,-0.085L0.242,-0.661C0.248,-0.678 0.257,-0.69 0.269,-0.698C0.281,-0.706 0.296,-0.71 0.313,-0.71C0.33,-0.71 0.344,-0.706 0.356,-0.698C0.367,-0.69 0.376,-0.678 0.382,-0.661L0.599,-0.085C0.604,-0.071 0.605,-0.057 0.601,-0.042C0.597,-0.028 0.59,-0.015 0.578,-0.005C0.567,0.005 0.552,0.01 0.535,0.01C0.52,0.01 0.506,0.006 0.494,-0.002C0.482,-0.009 0.473,-0.02 0.469,-0.033L0.295,-0.567L0.328,-0.567L0.155,-0.033C0.151,-0.02 0.142,-0.009 0.13,-0.002C0.118,0.006 0.104,0.01 0.089,0.01ZM0.14,-0.16L0.14,-0.284L0.472,-0.284L0.472,-0.16L0.14,-0.16Z" style="fill-rule:nonzero;"/>
                </g>
                <g transform="matrix(42.6667,0,0,42.6667,1405.07,760.77)">
                    <path d="M0.081,-0.568C0.062,-0.568 0.047,-0.575 0.034,-0.587C0.021,-0.6 0.015,-0.615 0.015,-0.634C0.015,-0.653 0.021,-0.669 0.034,-0.681C0.047,-0.694 0.062,-0.7 0.081,-0.7L0.509,-0.7C0.528,-0.7 0.544,-0.694 0.556,-0.681C0.569,-0.669 0.575,-0.653 0.575,-0.634C0.575,-0.615 0.569,-0.6 0.556,-0.587C0.544,-0.575 0.528,-0.568 0.509,-0.568L0.081,-0.568ZM0.295,0.01C0.275,0.01 0.259,0.004 0.246,-0.01C0.233,-0.023 0.227,-0.039 0.227,-0.059L0.227,-0.632L0.364,-0.632L0.364,-0.059C0.364,-0.039 0.358,-0.023 0.345,-0.01C0.332,0.004 0.315,0.01 0.295,0.01Z" style="fill-rule:nonzero;"/>
                </g>
                <g transform="matrix(42.6667,0,0,42.6667,1430.24,760.77)">
                    <path d="M0.149,-0C0.129,-0 0.112,-0.006 0.099,-0.019C0.086,-0.032 0.08,-0.048 0.08,-0.068L0.08,-0.631C0.08,-0.651 0.086,-0.668 0.099,-0.681C0.112,-0.694 0.129,-0.7 0.149,-0.7L0.218,-0.7L0.218,-0L0.149,-0ZM0.172,-0.576L0.172,-0.7L0.469,-0.7C0.487,-0.7 0.502,-0.694 0.514,-0.683C0.525,-0.671 0.531,-0.656 0.531,-0.638C0.531,-0.62 0.525,-0.605 0.514,-0.593C0.502,-0.582 0.487,-0.576 0.469,-0.576L0.172,-0.576ZM0.173,-0.295L0.173,-0.419L0.431,-0.419C0.449,-0.419 0.464,-0.413 0.476,-0.402C0.487,-0.39 0.493,-0.375 0.493,-0.357C0.493,-0.339 0.487,-0.324 0.476,-0.312C0.464,-0.301 0.449,-0.295 0.431,-0.295L0.173,-0.295ZM0.183,-0L0.183,-0.127L0.481,-0.127C0.499,-0.127 0.514,-0.121 0.525,-0.11C0.537,-0.098 0.543,-0.083 0.543,-0.064C0.543,-0.045 0.537,-0.03 0.525,-0.018C0.514,-0.006 0.499,-0 0.481,-0L0.183,-0Z" style="fill-rule:nonzero;"/>
                </g>
                <g transform="matrix(42.6667,0,0,42.6667,1455.02,760.77)">
                    <path d="M0.149,0.01C0.129,0.01 0.113,0.003 0.1,-0.01C0.087,-0.023 0.08,-0.039 0.08,-0.059L0.08,-0.631C0.08,-0.651 0.087,-0.668 0.1,-0.681C0.113,-0.694 0.129,-0.7 0.149,-0.7L0.218,-0.7L0.218,-0.059C0.218,-0.039 0.211,-0.023 0.198,-0.01C0.185,0.003 0.169,0.01 0.149,0.01ZM0.189,-0.271L0.189,-0.395L0.368,-0.395C0.394,-0.395 0.415,-0.403 0.431,-0.42C0.447,-0.436 0.455,-0.457 0.455,-0.482C0.455,-0.513 0.445,-0.536 0.426,-0.552C0.406,-0.568 0.384,-0.576 0.36,-0.576L0.189,-0.576L0.189,-0.7L0.37,-0.7C0.413,-0.7 0.452,-0.691 0.486,-0.673C0.519,-0.655 0.546,-0.63 0.566,-0.598C0.586,-0.565 0.596,-0.528 0.596,-0.485C0.596,-0.442 0.586,-0.404 0.567,-0.372C0.547,-0.34 0.521,-0.315 0.489,-0.298C0.456,-0.28 0.42,-0.271 0.38,-0.271L0.189,-0.271ZM0.546,0.01C0.533,0.01 0.521,0.007 0.511,0C0.5,-0.006 0.493,-0.015 0.487,-0.027L0.348,-0.318L0.479,-0.346L0.605,-0.087C0.61,-0.077 0.612,-0.067 0.612,-0.057C0.612,-0.038 0.606,-0.023 0.593,-0.01C0.58,0.003 0.565,0.01 0.546,0.01Z" style="fill-rule:nonzero;"/>
                </g>
                <g transform="matrix(42.6667,0,0,42.6667,1483.11,760.77)">
                </g>
            </g>
        </g>
    </g>
</svg>
