<?xml version="1.0" encoding="UTF-8" standalone="no"?>
<!DOCTYPE svg PUBLIC "-//W3C//DTD SVG 1.1//EN" "http://www.w3.org/Graphics/SVG/1.1/DTD/svg11.dtd">
<svg width="100%" height="100%" viewBox="0 0 265 265" version="1.1" xmlns="http://www.w3.org/2000/svg" xmlns:xlink="http://www.w3.org/1999/xlink" xml:space="preserve" xmlns:serif="http://www.serif.com/" style="fill-rule:evenodd;clip-rule:evenodd;stroke-miterlimit:100;">
    <g transform="matrix(1,0,0,1,-166.367,-5.68434e-14)">
        <g id="R1_Food-Water" transform="matrix(1,0,0,1,166.367,5.68434e-14)">
            <rect x="0" y="0" width="264.567" height="264.567" style="fill:none;"/>
            <clipPath id="_clip1">
                <rect x="0" y="0" width="264.567" height="264.567"/>
            </clipPath>
            <g clip-path="url(#_clip1)">
                <g transform="matrix(0.24202,0,0,0.24202,122.323,134.507)">
                    <g transform="matrix(1,0,0,1,-642.667,-642.667)">
                        <clipPath id="_clip2">
                            <rect x="0" y="0" width="1285.33" height="1285.33"/>
                        </clipPath>
                        <g clip-path="url(#_clip2)">
                            <g id="Group-4" serif:id="Group 4" transform="matrix(2.66667,0,0,2.66667,0,0)">
                                <path id="Shape-10" serif:id="Shape 10" d="M383,98L383,304C383,304 358.87,320 324,320C287.02,320 267,306 267,306L267,99L383,98Z" style="fill:white;stroke:black;stroke-width:10px;"/>
                                <path id="Ellipse-1" serif:id="Ellipse 1" d="M323.5,78C355.26,78 383,86.06 383,96C383,105.94 355.26,114 323.5,114C291.74,114 267,105.94 267,96C267,86.06 291.74,78 323.5,78Z" style="fill:white;stroke:black;stroke-width:10px;"/>
                                <path id="Shape-11" serif:id="Shape 11" d="M267,144C267,144 282.3,159 322,159C366.29,159 382,143 382,143" style="fill:none;stroke:black;stroke-width:10px;"/>
                                <path id="Shape-11-copy" serif:id="Shape 11 copy" d="M266,263C266,263 281.3,278 321,278C365.29,278 382,261 382,261" style="fill:none;stroke:black;stroke-width:10px;"/>
                            </g>
                            <g id="Group-4-copy" serif:id="Group 4 copy" transform="matrix(2.66667,0,0,2.66667,0,0)">
                                <path id="Shape-101" serif:id="Shape 10" d="M297,152L297,359C297,359 274.87,375 240,375C203.02,375 183,361 183,361L183,154L297,152Z" style="fill:white;stroke:black;stroke-width:10px;"/>
                                <path id="Shape-11-copy-2" serif:id="Shape 11 copy 2" d="M183,187C183,187 199.89,200 242,200C281.73,200 297,185 297,185" style="fill:none;stroke:black;stroke-width:10px;"/>
                                <path id="Ellipse-11" serif:id="Ellipse 1" d="M240.5,134C272.26,134 298,142.06 298,152C298,161.94 272.26,170 240.5,170C208.74,170 183,161.94 183,152C183,142.06 208.74,134 240.5,134Z" style="fill:white;stroke:black;stroke-width:10px;"/>
                            </g>
                            <g id="Group-2" serif:id="Group 2" transform="matrix(2.66667,0,0,2.66667,0,0)">
                                <path id="Shape-8" serif:id="Shape 8" d="M336.41,304.14L336.41,381.91C336.41,381.91 317.99,396.41 269.14,396.41C220.29,396.41 196.59,380.59 196.59,380.59L196.59,304.14C196.59,304.14 220.75,293.59 263.86,293.59C306.97,293.59 336.41,304.14 336.41,304.14Z" style="fill:white;stroke:black;stroke-width:10px;"/>
                                <path id="Shape-9" serif:id="Shape 9" d="M196.59,323.55C196.59,323.55 223.42,337.09 266.5,337.09C312.73,337.09 335.09,323.95 335.09,323.95" style="fill:none;stroke:black;stroke-width:10px;"/>
                            </g>
                            <g id="Group-2-copy" serif:id="Group 2 copy" transform="matrix(2.66667,0,0,2.66667,0,0)">
                                <path id="Shape-81" serif:id="Shape 8" d="M404.41,236.14L404.41,313.91C404.41,313.91 385.99,328.41 337.14,328.41C288.29,328.41 264.59,312.59 264.59,312.59L264.59,236.14C264.59,236.14 288.75,225.59 331.86,225.59C374.97,225.59 404.41,236.14 404.41,236.14Z" style="fill:white;stroke:black;stroke-width:10px;"/>
                                <path id="Shape-91" serif:id="Shape 9" d="M264,250C264,250 291.92,265 335,265C381.23,265 403,247 403,247" style="fill:none;stroke:black;stroke-width:10px;"/>
                            </g>
                            <g id="Group-3" serif:id="Group 3" transform="matrix(2.66667,0,0,2.66667,0,0)">
                                <path id="Shape-2" serif:id="Shape 2" d="M107,385L107,165C107,165 105.74,147.98 114,138C122.84,127.33 132,125 132,125L132,79L170,79L170,124C170,124 182.73,129.95 189,140C194.4,148.65 196,165 196,165L196,385C196,385 184.03,394 153,394C123.08,394 107,385 107,385Z" style="fill:white;stroke:black;stroke-width:10px;"/>
                                <path id="Ellipse-2" serif:id="Ellipse 2" d="M151.58,149.19C165.29,149.19 176.4,164.13 176.4,182.57C176.4,201 165.29,215.94 151.58,215.94C137.87,215.94 126.76,201 126.76,182.57C126.76,164.13 137.87,149.19 151.58,149.19Z" style="fill:none;stroke:black;stroke-width:10px;"/>
                                <path id="Shape-3" serif:id="Shape 3" d="M136,107L167,107" style="fill:none;stroke:black;stroke-width:10px;"/>
                            </g>
                        </g>
                    </g>
                </g>
            </g>
        </g>
    </g>
</svg>
