<?xml version="1.0" encoding="UTF-8" standalone="no"?>
<!DOCTYPE svg PUBLIC "-//W3C//DTD SVG 1.1//EN" "http://www.w3.org/Graphics/SVG/1.1/DTD/svg11.dtd">
<svg width="100%" height="100%" viewBox="0 0 265 265" version="1.1" xmlns="http://www.w3.org/2000/svg" xmlns:xlink="http://www.w3.org/1999/xlink" xml:space="preserve" xmlns:serif="http://www.serif.com/" style="fill-rule:evenodd;clip-rule:evenodd;stroke-linejoin:round;stroke-miterlimit:2;">
    <g transform="matrix(1,0,0,1,-1520.38,-1.13687e-13)">
        <g id="R6_Medical-Supplies" transform="matrix(1,0,0,1,1520.38,1.13687e-13)">
            <rect x="0" y="0" width="264.567" height="264.567" style="fill:none;"/>
            <g transform="matrix(1,0,0,1,-1282.53,-554.246)">
                <g transform="matrix(42.6667,0,0,42.6667,1389.25,643.436)">
                    <path d="M0.303,0.015C0.252,0.015 0.206,0.007 0.166,-0.009C0.126,-0.026 0.095,-0.047 0.072,-0.074C0.049,-0.1 0.038,-0.129 0.038,-0.16C0.038,-0.178 0.043,-0.194 0.055,-0.206C0.067,-0.218 0.083,-0.224 0.104,-0.224C0.122,-0.224 0.135,-0.219 0.143,-0.209C0.152,-0.199 0.16,-0.188 0.168,-0.175C0.179,-0.157 0.195,-0.141 0.216,-0.128C0.236,-0.115 0.264,-0.109 0.299,-0.109C0.319,-0.109 0.337,-0.111 0.354,-0.116C0.37,-0.121 0.384,-0.13 0.394,-0.142C0.404,-0.154 0.409,-0.169 0.409,-0.189C0.409,-0.208 0.404,-0.223 0.393,-0.235C0.383,-0.247 0.368,-0.258 0.349,-0.267C0.329,-0.277 0.306,-0.286 0.279,-0.297C0.256,-0.306 0.232,-0.315 0.208,-0.326C0.184,-0.336 0.161,-0.35 0.141,-0.365C0.121,-0.381 0.105,-0.401 0.093,-0.425C0.08,-0.45 0.074,-0.48 0.074,-0.517C0.074,-0.56 0.084,-0.597 0.104,-0.626C0.124,-0.655 0.15,-0.678 0.184,-0.693C0.218,-0.708 0.256,-0.715 0.299,-0.715C0.33,-0.715 0.358,-0.711 0.384,-0.704C0.41,-0.696 0.433,-0.686 0.453,-0.672C0.472,-0.659 0.487,-0.643 0.498,-0.626C0.509,-0.609 0.515,-0.59 0.516,-0.571C0.516,-0.551 0.51,-0.536 0.499,-0.523C0.488,-0.511 0.472,-0.505 0.453,-0.505C0.438,-0.505 0.427,-0.507 0.42,-0.513C0.412,-0.518 0.405,-0.527 0.397,-0.539C0.389,-0.555 0.377,-0.568 0.362,-0.577C0.347,-0.587 0.327,-0.591 0.3,-0.591C0.283,-0.591 0.268,-0.589 0.255,-0.583C0.242,-0.578 0.231,-0.57 0.223,-0.56C0.216,-0.55 0.212,-0.538 0.212,-0.523C0.212,-0.503 0.218,-0.487 0.23,-0.474C0.243,-0.461 0.259,-0.45 0.279,-0.441C0.299,-0.431 0.321,-0.422 0.345,-0.413C0.372,-0.402 0.397,-0.391 0.421,-0.379C0.445,-0.367 0.467,-0.353 0.486,-0.337C0.505,-0.321 0.52,-0.302 0.531,-0.279C0.541,-0.256 0.547,-0.228 0.547,-0.196C0.547,-0.15 0.536,-0.111 0.515,-0.08C0.494,-0.048 0.465,-0.025 0.428,-0.009C0.391,0.007 0.349,0.015 0.303,0.015Z" style="fill-rule:nonzero;"/>
                </g>
                <g transform="matrix(42.6667,0,0,42.6667,1414.18,643.436)">
                    <path d="M0.32,0.014C0.263,0.014 0.214,0 0.174,-0.028C0.133,-0.056 0.103,-0.096 0.082,-0.147C0.061,-0.199 0.05,-0.26 0.05,-0.33C0.05,-0.405 0.062,-0.471 0.085,-0.529C0.109,-0.587 0.142,-0.632 0.184,-0.665C0.226,-0.698 0.276,-0.714 0.332,-0.714C0.36,-0.714 0.387,-0.71 0.413,-0.701C0.44,-0.693 0.463,-0.682 0.484,-0.667C0.505,-0.653 0.522,-0.636 0.534,-0.618C0.546,-0.599 0.552,-0.58 0.552,-0.56C0.553,-0.542 0.547,-0.527 0.537,-0.514C0.526,-0.502 0.511,-0.495 0.492,-0.495C0.476,-0.495 0.463,-0.499 0.454,-0.508C0.444,-0.516 0.436,-0.524 0.43,-0.533C0.421,-0.548 0.41,-0.562 0.395,-0.574C0.381,-0.586 0.36,-0.592 0.334,-0.592C0.307,-0.592 0.283,-0.585 0.263,-0.571C0.243,-0.557 0.226,-0.537 0.214,-0.51C0.201,-0.484 0.193,-0.452 0.188,-0.414C0.211,-0.431 0.235,-0.443 0.26,-0.453C0.284,-0.462 0.31,-0.466 0.336,-0.466C0.379,-0.466 0.417,-0.456 0.453,-0.437C0.488,-0.417 0.516,-0.389 0.537,-0.353C0.558,-0.317 0.569,-0.275 0.569,-0.228C0.569,-0.184 0.559,-0.143 0.54,-0.107C0.521,-0.07 0.493,-0.041 0.456,-0.019C0.419,0.003 0.374,0.014 0.32,0.014ZM0.188,-0.274C0.194,-0.221 0.209,-0.179 0.232,-0.151C0.254,-0.122 0.283,-0.108 0.317,-0.108C0.34,-0.108 0.361,-0.113 0.379,-0.125C0.398,-0.136 0.412,-0.152 0.423,-0.171C0.433,-0.19 0.439,-0.211 0.439,-0.234C0.439,-0.256 0.434,-0.276 0.424,-0.293C0.413,-0.31 0.4,-0.324 0.382,-0.334C0.365,-0.344 0.346,-0.349 0.326,-0.349C0.311,-0.349 0.296,-0.346 0.281,-0.34C0.266,-0.335 0.251,-0.327 0.235,-0.316C0.22,-0.305 0.204,-0.291 0.188,-0.274Z" style="fill-rule:nonzero;"/>
                </g>
                <g transform="matrix(42.6667,0,0,42.6667,1440.37,643.436)">
                </g>
                <g transform="matrix(42.6667,0,0,42.6667,1324.97,718.103)">
                    <path d="M0.149,0.01C0.129,0.01 0.113,0.004 0.1,-0.01C0.087,-0.023 0.08,-0.039 0.08,-0.059L0.083,-0.634C0.083,-0.659 0.09,-0.678 0.104,-0.691C0.117,-0.704 0.135,-0.71 0.157,-0.71C0.177,-0.71 0.193,-0.706 0.205,-0.697C0.217,-0.688 0.226,-0.678 0.231,-0.665L0.433,-0.174L0.633,-0.665C0.638,-0.678 0.647,-0.688 0.66,-0.697C0.672,-0.706 0.688,-0.71 0.708,-0.71C0.73,-0.71 0.748,-0.704 0.761,-0.691C0.774,-0.678 0.781,-0.659 0.781,-0.634L0.784,-0.059C0.784,-0.039 0.778,-0.023 0.765,-0.01C0.752,0.004 0.736,0.01 0.716,0.01C0.696,0.01 0.679,0.004 0.666,-0.01C0.653,-0.023 0.646,-0.039 0.647,-0.059L0.654,-0.392L0.513,-0.052C0.503,-0.029 0.492,-0.013 0.478,-0.004C0.465,0.005 0.45,0.01 0.433,0.01C0.417,0.01 0.402,0.005 0.388,-0.004C0.375,-0.013 0.363,-0.029 0.354,-0.052L0.211,-0.393L0.218,-0.059C0.218,-0.039 0.212,-0.023 0.199,-0.01C0.186,0.004 0.169,0.01 0.149,0.01Z" style="fill-rule:nonzero;"/>
                </g>
                <g transform="matrix(42.6667,0,0,42.6667,1361.85,718.103)">
                    <path d="M0.149,-0C0.129,-0 0.112,-0.006 0.099,-0.019C0.086,-0.032 0.08,-0.048 0.08,-0.068L0.08,-0.631C0.08,-0.651 0.086,-0.668 0.099,-0.681C0.112,-0.694 0.129,-0.7 0.149,-0.7L0.218,-0.7L0.218,-0L0.149,-0ZM0.172,-0.576L0.172,-0.7L0.469,-0.7C0.487,-0.7 0.502,-0.694 0.514,-0.683C0.525,-0.671 0.531,-0.656 0.531,-0.638C0.531,-0.62 0.525,-0.605 0.514,-0.593C0.502,-0.582 0.487,-0.576 0.469,-0.576L0.172,-0.576ZM0.173,-0.295L0.173,-0.419L0.431,-0.419C0.449,-0.419 0.464,-0.413 0.476,-0.402C0.487,-0.39 0.493,-0.375 0.493,-0.357C0.493,-0.339 0.487,-0.324 0.476,-0.312C0.464,-0.301 0.449,-0.295 0.431,-0.295L0.173,-0.295ZM0.183,-0L0.183,-0.127L0.481,-0.127C0.499,-0.127 0.514,-0.121 0.525,-0.11C0.537,-0.098 0.543,-0.083 0.543,-0.064C0.543,-0.045 0.537,-0.03 0.525,-0.018C0.514,-0.006 0.499,-0 0.481,-0L0.183,-0Z" style="fill-rule:nonzero;"/>
                </g>
                <g transform="matrix(42.6667,0,0,42.6667,1386.63,718.103)">
                    <path d="M0.149,-0C0.129,-0 0.113,-0.007 0.1,-0.02C0.087,-0.033 0.08,-0.049 0.08,-0.069L0.08,-0.631C0.08,-0.651 0.087,-0.668 0.1,-0.681C0.113,-0.694 0.129,-0.7 0.149,-0.7L0.353,-0.7C0.409,-0.7 0.458,-0.685 0.5,-0.656C0.541,-0.626 0.574,-0.585 0.597,-0.533C0.62,-0.48 0.632,-0.419 0.632,-0.35C0.632,-0.281 0.62,-0.22 0.596,-0.168C0.571,-0.115 0.537,-0.074 0.493,-0.044C0.448,-0.015 0.396,-0 0.335,-0L0.149,-0ZM0.218,-0.125L0.334,-0.125C0.369,-0.125 0.398,-0.133 0.422,-0.152C0.445,-0.169 0.463,-0.195 0.475,-0.229C0.487,-0.263 0.493,-0.303 0.493,-0.35C0.493,-0.397 0.487,-0.437 0.475,-0.471C0.463,-0.504 0.447,-0.53 0.425,-0.549C0.403,-0.567 0.377,-0.576 0.347,-0.576L0.218,-0.576L0.218,-0.125Z" style="fill-rule:nonzero;"/>
                </g>
                <g transform="matrix(42.6667,0,0,42.6667,1415.3,718.103)">
                    <path d="M0.149,0.01C0.129,0.01 0.112,0.004 0.099,-0.01C0.086,-0.023 0.08,-0.039 0.08,-0.059L0.08,-0.641C0.08,-0.661 0.086,-0.678 0.099,-0.691C0.112,-0.704 0.129,-0.71 0.149,-0.71C0.169,-0.71 0.185,-0.704 0.198,-0.691C0.211,-0.678 0.218,-0.661 0.218,-0.641L0.218,-0.059C0.218,-0.039 0.211,-0.023 0.198,-0.01C0.185,0.004 0.169,0.01 0.149,0.01Z" style="fill-rule:nonzero;"/>
                </g>
                <g transform="matrix(42.6667,0,0,42.6667,1427.99,718.103)">
                    <path d="M0.347,0.015C0.3,0.015 0.258,0.005 0.221,-0.014C0.185,-0.034 0.154,-0.061 0.13,-0.095C0.105,-0.129 0.087,-0.167 0.074,-0.211C0.062,-0.255 0.055,-0.302 0.055,-0.35C0.055,-0.421 0.068,-0.484 0.093,-0.539C0.118,-0.594 0.153,-0.637 0.197,-0.668C0.241,-0.699 0.292,-0.715 0.349,-0.715C0.377,-0.715 0.405,-0.711 0.432,-0.703C0.459,-0.695 0.483,-0.685 0.505,-0.671C0.528,-0.657 0.545,-0.64 0.559,-0.622C0.572,-0.603 0.579,-0.582 0.58,-0.56C0.58,-0.542 0.575,-0.526 0.564,-0.514C0.554,-0.501 0.539,-0.495 0.519,-0.495C0.503,-0.495 0.49,-0.499 0.481,-0.507C0.471,-0.515 0.463,-0.523 0.457,-0.533C0.45,-0.547 0.439,-0.561 0.425,-0.573C0.412,-0.586 0.39,-0.592 0.361,-0.592C0.326,-0.592 0.297,-0.582 0.272,-0.561C0.247,-0.541 0.228,-0.512 0.214,-0.476C0.201,-0.44 0.194,-0.397 0.194,-0.348C0.194,-0.299 0.201,-0.256 0.214,-0.221C0.228,-0.185 0.247,-0.158 0.271,-0.138C0.295,-0.119 0.324,-0.109 0.357,-0.109C0.384,-0.109 0.407,-0.116 0.424,-0.13C0.441,-0.144 0.454,-0.165 0.462,-0.192C0.466,-0.207 0.474,-0.218 0.486,-0.227C0.497,-0.236 0.511,-0.241 0.526,-0.241C0.544,-0.241 0.559,-0.235 0.572,-0.222C0.585,-0.21 0.591,-0.192 0.591,-0.169C0.59,-0.146 0.584,-0.123 0.572,-0.101C0.559,-0.079 0.542,-0.059 0.52,-0.042C0.498,-0.025 0.472,-0.011 0.443,-0.001C0.413,0.01 0.382,0.015 0.347,0.015Z" style="fill-rule:nonzero;"/>
                </g>
                <g transform="matrix(42.6667,0,0,42.6667,1454.91,718.103)">
                    <path d="M0.089,0.01C0.071,0.01 0.056,0.005 0.044,-0.006C0.033,-0.016 0.025,-0.029 0.022,-0.044C0.019,-0.059 0.02,-0.073 0.024,-0.085L0.242,-0.661C0.248,-0.678 0.257,-0.69 0.269,-0.698C0.281,-0.706 0.296,-0.71 0.313,-0.71C0.33,-0.71 0.344,-0.706 0.356,-0.698C0.367,-0.69 0.376,-0.678 0.382,-0.661L0.599,-0.085C0.604,-0.071 0.605,-0.057 0.601,-0.042C0.597,-0.028 0.59,-0.015 0.578,-0.005C0.567,0.005 0.552,0.01 0.535,0.01C0.52,0.01 0.506,0.006 0.494,-0.002C0.482,-0.009 0.473,-0.02 0.469,-0.033L0.295,-0.567L0.328,-0.567L0.155,-0.033C0.151,-0.02 0.142,-0.009 0.13,-0.002C0.118,0.006 0.104,0.01 0.089,0.01ZM0.14,-0.16L0.14,-0.284L0.472,-0.284L0.472,-0.16L0.14,-0.16Z" style="fill-rule:nonzero;"/>
                </g>
                <g transform="matrix(42.6667,0,0,42.6667,1481.49,718.103)">
                    <path d="M0.149,-0C0.13,-0 0.114,-0.007 0.1,-0.02C0.087,-0.034 0.08,-0.05 0.08,-0.069L0.08,-0.641C0.08,-0.66 0.086,-0.676 0.099,-0.69C0.111,-0.703 0.127,-0.71 0.146,-0.71C0.165,-0.71 0.181,-0.703 0.196,-0.69C0.21,-0.676 0.218,-0.66 0.218,-0.641L0.218,-0.127L0.45,-0.127C0.468,-0.127 0.483,-0.121 0.495,-0.11C0.506,-0.098 0.512,-0.083 0.512,-0.064C0.512,-0.045 0.506,-0.03 0.495,-0.018C0.483,-0.006 0.468,-0 0.45,-0L0.149,-0Z" style="fill-rule:nonzero;"/>
                </g>
                <g transform="matrix(42.6667,0,0,42.6667,1504.65,718.103)">
                </g>
                <g transform="matrix(42.6667,0,0,42.6667,1318.97,760.77)">
                    <path d="M0.303,0.015C0.252,0.015 0.206,0.007 0.166,-0.009C0.126,-0.026 0.095,-0.047 0.072,-0.074C0.049,-0.1 0.038,-0.129 0.038,-0.16C0.038,-0.178 0.043,-0.194 0.055,-0.206C0.067,-0.218 0.083,-0.224 0.104,-0.224C0.122,-0.224 0.135,-0.219 0.143,-0.209C0.152,-0.199 0.16,-0.188 0.168,-0.175C0.179,-0.157 0.195,-0.141 0.216,-0.128C0.236,-0.115 0.264,-0.109 0.299,-0.109C0.319,-0.109 0.337,-0.111 0.354,-0.116C0.37,-0.121 0.384,-0.13 0.394,-0.142C0.404,-0.154 0.409,-0.169 0.409,-0.189C0.409,-0.208 0.404,-0.223 0.393,-0.235C0.383,-0.247 0.368,-0.258 0.349,-0.267C0.329,-0.277 0.306,-0.286 0.279,-0.297C0.256,-0.306 0.232,-0.315 0.208,-0.326C0.184,-0.336 0.161,-0.35 0.141,-0.365C0.121,-0.381 0.105,-0.401 0.093,-0.425C0.08,-0.45 0.074,-0.48 0.074,-0.517C0.074,-0.56 0.084,-0.597 0.104,-0.626C0.124,-0.655 0.15,-0.678 0.184,-0.693C0.218,-0.708 0.256,-0.715 0.299,-0.715C0.33,-0.715 0.358,-0.711 0.384,-0.704C0.41,-0.696 0.433,-0.686 0.453,-0.672C0.472,-0.659 0.487,-0.643 0.498,-0.626C0.509,-0.609 0.515,-0.59 0.516,-0.571C0.516,-0.551 0.51,-0.536 0.499,-0.523C0.488,-0.511 0.472,-0.505 0.453,-0.505C0.438,-0.505 0.427,-0.507 0.42,-0.513C0.412,-0.518 0.405,-0.527 0.397,-0.539C0.389,-0.555 0.377,-0.568 0.362,-0.577C0.347,-0.587 0.327,-0.591 0.3,-0.591C0.283,-0.591 0.268,-0.589 0.255,-0.583C0.242,-0.578 0.231,-0.57 0.223,-0.56C0.216,-0.55 0.212,-0.538 0.212,-0.523C0.212,-0.503 0.218,-0.487 0.23,-0.474C0.243,-0.461 0.259,-0.45 0.279,-0.441C0.299,-0.431 0.321,-0.422 0.345,-0.413C0.372,-0.402 0.397,-0.391 0.421,-0.379C0.445,-0.367 0.467,-0.353 0.486,-0.337C0.505,-0.321 0.52,-0.302 0.531,-0.279C0.541,-0.256 0.547,-0.228 0.547,-0.196C0.547,-0.15 0.536,-0.111 0.515,-0.08C0.494,-0.048 0.465,-0.025 0.428,-0.009C0.391,0.007 0.349,0.015 0.303,0.015Z" style="fill-rule:nonzero;"/>
                </g>
                <g transform="matrix(42.6667,0,0,42.6667,1343.9,760.77)">
                    <path d="M0.351,0.015C0.312,0.015 0.276,0.008 0.243,-0.006C0.209,-0.02 0.18,-0.04 0.155,-0.065C0.13,-0.091 0.11,-0.12 0.096,-0.154C0.082,-0.187 0.075,-0.223 0.075,-0.262L0.075,-0.641C0.075,-0.661 0.082,-0.678 0.095,-0.691C0.108,-0.704 0.124,-0.71 0.144,-0.71C0.164,-0.71 0.18,-0.704 0.193,-0.691C0.206,-0.678 0.213,-0.661 0.213,-0.641L0.213,-0.253C0.213,-0.226 0.219,-0.202 0.231,-0.181C0.243,-0.16 0.259,-0.143 0.28,-0.131C0.3,-0.119 0.324,-0.113 0.351,-0.113C0.378,-0.113 0.401,-0.119 0.422,-0.131C0.443,-0.143 0.459,-0.16 0.471,-0.181C0.483,-0.202 0.489,-0.226 0.489,-0.253L0.489,-0.641C0.489,-0.661 0.496,-0.678 0.509,-0.691C0.522,-0.704 0.538,-0.71 0.558,-0.71C0.578,-0.71 0.594,-0.704 0.607,-0.691C0.62,-0.678 0.627,-0.661 0.627,-0.641L0.627,-0.262C0.627,-0.223 0.62,-0.187 0.606,-0.154C0.591,-0.12 0.572,-0.091 0.547,-0.065C0.522,-0.04 0.493,-0.02 0.459,-0.006C0.426,0.008 0.389,0.015 0.351,0.015Z" style="fill-rule:nonzero;"/>
                </g>
                <g transform="matrix(42.6667,0,0,42.6667,1373.83,760.77)">
                    <path d="M0.149,0.01C0.13,0.01 0.114,0.003 0.1,-0.01C0.087,-0.024 0.08,-0.04 0.08,-0.059L0.08,-0.631C0.08,-0.65 0.087,-0.666 0.1,-0.68C0.114,-0.693 0.13,-0.7 0.149,-0.7L0.218,-0.7L0.218,-0.059C0.218,-0.04 0.211,-0.024 0.197,-0.01C0.184,0.003 0.168,0.01 0.149,0.01ZM0.187,-0.263L0.187,-0.387L0.356,-0.387C0.374,-0.387 0.39,-0.391 0.403,-0.399C0.417,-0.407 0.427,-0.417 0.435,-0.431C0.442,-0.445 0.446,-0.461 0.446,-0.479C0.446,-0.499 0.442,-0.516 0.435,-0.531C0.427,-0.545 0.416,-0.556 0.402,-0.564C0.387,-0.572 0.37,-0.576 0.35,-0.576L0.187,-0.576L0.187,-0.7L0.361,-0.7C0.405,-0.7 0.443,-0.691 0.477,-0.672C0.511,-0.654 0.538,-0.628 0.557,-0.596C0.577,-0.563 0.587,-0.525 0.587,-0.482C0.587,-0.438 0.577,-0.4 0.558,-0.367C0.538,-0.334 0.513,-0.309 0.48,-0.291C0.448,-0.272 0.412,-0.263 0.373,-0.263L0.187,-0.263Z" style="fill-rule:nonzero;"/>
                </g>
                <g transform="matrix(42.6667,0,0,42.6667,1399.46,760.77)">
                    <path d="M0.149,0.01C0.13,0.01 0.114,0.003 0.1,-0.01C0.087,-0.024 0.08,-0.04 0.08,-0.059L0.08,-0.631C0.08,-0.65 0.087,-0.666 0.1,-0.68C0.114,-0.693 0.13,-0.7 0.149,-0.7L0.218,-0.7L0.218,-0.059C0.218,-0.04 0.211,-0.024 0.197,-0.01C0.184,0.003 0.168,0.01 0.149,0.01ZM0.187,-0.263L0.187,-0.387L0.356,-0.387C0.374,-0.387 0.39,-0.391 0.403,-0.399C0.417,-0.407 0.427,-0.417 0.435,-0.431C0.442,-0.445 0.446,-0.461 0.446,-0.479C0.446,-0.499 0.442,-0.516 0.435,-0.531C0.427,-0.545 0.416,-0.556 0.402,-0.564C0.387,-0.572 0.37,-0.576 0.35,-0.576L0.187,-0.576L0.187,-0.7L0.361,-0.7C0.405,-0.7 0.443,-0.691 0.477,-0.672C0.511,-0.654 0.538,-0.628 0.557,-0.596C0.577,-0.563 0.587,-0.525 0.587,-0.482C0.587,-0.438 0.577,-0.4 0.558,-0.367C0.538,-0.334 0.513,-0.309 0.48,-0.291C0.448,-0.272 0.412,-0.263 0.373,-0.263L0.187,-0.263Z" style="fill-rule:nonzero;"/>
                </g>
                <g transform="matrix(42.6667,0,0,42.6667,1425.09,760.77)">
                    <path d="M0.149,-0C0.13,-0 0.114,-0.007 0.1,-0.02C0.087,-0.034 0.08,-0.05 0.08,-0.069L0.08,-0.641C0.08,-0.66 0.086,-0.676 0.099,-0.69C0.111,-0.703 0.127,-0.71 0.146,-0.71C0.165,-0.71 0.181,-0.703 0.196,-0.69C0.21,-0.676 0.218,-0.66 0.218,-0.641L0.218,-0.127L0.45,-0.127C0.468,-0.127 0.483,-0.121 0.495,-0.11C0.506,-0.098 0.512,-0.083 0.512,-0.064C0.512,-0.045 0.506,-0.03 0.495,-0.018C0.483,-0.006 0.468,-0 0.45,-0L0.149,-0Z" style="fill-rule:nonzero;"/>
                </g>
                <g transform="matrix(42.6667,0,0,42.6667,1448.25,760.77)">
                    <path d="M0.149,0.01C0.129,0.01 0.112,0.004 0.099,-0.01C0.086,-0.023 0.08,-0.039 0.08,-0.059L0.08,-0.641C0.08,-0.661 0.086,-0.678 0.099,-0.691C0.112,-0.704 0.129,-0.71 0.149,-0.71C0.169,-0.71 0.185,-0.704 0.198,-0.691C0.211,-0.678 0.218,-0.661 0.218,-0.641L0.218,-0.059C0.218,-0.039 0.211,-0.023 0.198,-0.01C0.185,0.004 0.169,0.01 0.149,0.01Z" style="fill-rule:nonzero;"/>
                </g>
                <g transform="matrix(42.6667,0,0,42.6667,1460.95,760.77)">
                    <path d="M0.149,-0C0.129,-0 0.112,-0.006 0.099,-0.019C0.086,-0.032 0.08,-0.048 0.08,-0.068L0.08,-0.631C0.08,-0.651 0.086,-0.668 0.099,-0.681C0.112,-0.694 0.129,-0.7 0.149,-0.7L0.218,-0.7L0.218,-0L0.149,-0ZM0.172,-0.576L0.172,-0.7L0.469,-0.7C0.487,-0.7 0.502,-0.694 0.514,-0.683C0.525,-0.671 0.531,-0.656 0.531,-0.638C0.531,-0.62 0.525,-0.605 0.514,-0.593C0.502,-0.582 0.487,-0.576 0.469,-0.576L0.172,-0.576ZM0.173,-0.295L0.173,-0.419L0.431,-0.419C0.449,-0.419 0.464,-0.413 0.476,-0.402C0.487,-0.39 0.493,-0.375 0.493,-0.357C0.493,-0.339 0.487,-0.324 0.476,-0.312C0.464,-0.301 0.449,-0.295 0.431,-0.295L0.173,-0.295ZM0.183,-0L0.183,-0.127L0.481,-0.127C0.499,-0.127 0.514,-0.121 0.525,-0.11C0.537,-0.098 0.543,-0.083 0.543,-0.064C0.543,-0.045 0.537,-0.03 0.525,-0.018C0.514,-0.006 0.499,-0 0.481,-0L0.183,-0Z" style="fill-rule:nonzero;"/>
                </g>
                <g transform="matrix(42.6667,0,0,42.6667,1485.72,760.77)">
                    <path d="M0.303,0.015C0.252,0.015 0.206,0.007 0.166,-0.009C0.126,-0.026 0.095,-0.047 0.072,-0.074C0.049,-0.1 0.038,-0.129 0.038,-0.16C0.038,-0.178 0.043,-0.194 0.055,-0.206C0.067,-0.218 0.083,-0.224 0.104,-0.224C0.122,-0.224 0.135,-0.219 0.143,-0.209C0.152,-0.199 0.16,-0.188 0.168,-0.175C0.179,-0.157 0.195,-0.141 0.216,-0.128C0.236,-0.115 0.264,-0.109 0.299,-0.109C0.319,-0.109 0.337,-0.111 0.354,-0.116C0.37,-0.121 0.384,-0.13 0.394,-0.142C0.404,-0.154 0.409,-0.169 0.409,-0.189C0.409,-0.208 0.404,-0.223 0.393,-0.235C0.383,-0.247 0.368,-0.258 0.349,-0.267C0.329,-0.277 0.306,-0.286 0.279,-0.297C0.256,-0.306 0.232,-0.315 0.208,-0.326C0.184,-0.336 0.161,-0.35 0.141,-0.365C0.121,-0.381 0.105,-0.401 0.093,-0.425C0.08,-0.45 0.074,-0.48 0.074,-0.517C0.074,-0.56 0.084,-0.597 0.104,-0.626C0.124,-0.655 0.15,-0.678 0.184,-0.693C0.218,-0.708 0.256,-0.715 0.299,-0.715C0.33,-0.715 0.358,-0.711 0.384,-0.704C0.41,-0.696 0.433,-0.686 0.453,-0.672C0.472,-0.659 0.487,-0.643 0.498,-0.626C0.509,-0.609 0.515,-0.59 0.516,-0.571C0.516,-0.551 0.51,-0.536 0.499,-0.523C0.488,-0.511 0.472,-0.505 0.453,-0.505C0.438,-0.505 0.427,-0.507 0.42,-0.513C0.412,-0.518 0.405,-0.527 0.397,-0.539C0.389,-0.555 0.377,-0.568 0.362,-0.577C0.347,-0.587 0.327,-0.591 0.3,-0.591C0.283,-0.591 0.268,-0.589 0.255,-0.583C0.242,-0.578 0.231,-0.57 0.223,-0.56C0.216,-0.55 0.212,-0.538 0.212,-0.523C0.212,-0.503 0.218,-0.487 0.23,-0.474C0.243,-0.461 0.259,-0.45 0.279,-0.441C0.299,-0.431 0.321,-0.422 0.345,-0.413C0.372,-0.402 0.397,-0.391 0.421,-0.379C0.445,-0.367 0.467,-0.353 0.486,-0.337C0.505,-0.321 0.52,-0.302 0.531,-0.279C0.541,-0.256 0.547,-0.228 0.547,-0.196C0.547,-0.15 0.536,-0.111 0.515,-0.08C0.494,-0.048 0.465,-0.025 0.428,-0.009C0.391,0.007 0.349,0.015 0.303,0.015Z" style="fill-rule:nonzero;"/>
                </g>
                <g transform="matrix(42.6667,0,0,42.6667,1510.65,760.77)">
                </g>
            </g>
        </g>
    </g>
</svg>
