<?xml version="1.0" encoding="UTF-8" standalone="no"?>
<!DOCTYPE svg PUBLIC "-//W3C//DTD SVG 1.1//EN" "http://www.w3.org/Graphics/SVG/1.1/DTD/svg11.dtd">
<svg width="100%" height="100%" viewBox="0 0 265 265" version="1.1" xmlns="http://www.w3.org/2000/svg" xmlns:xlink="http://www.w3.org/1999/xlink" xml:space="preserve" xmlns:serif="http://www.serif.com/" style="fill-rule:evenodd;clip-rule:evenodd;stroke-miterlimit:100;">
    <g transform="matrix(1,0,0,1,-1679.38,-1.13687e-13)">
        <g id="R6_Medical-Supplies" transform="matrix(1,0,0,1,1679.38,1.13687e-13)">
            <rect x="0" y="0" width="264.567" height="264.567" style="fill:none;"/>
            <clipPath id="_clip1">
                <rect x="0" y="0" width="264.567" height="264.567"/>
            </clipPath>
            <g clip-path="url(#_clip1)">
                <g transform="matrix(0.205835,0,0,0.205835,131.283,141.429)">
                    <g transform="matrix(1,0,0,1,-642.667,-642.667)">
                        <clipPath id="_clip2">
                            <rect x="0" y="0" width="1285.33" height="1285.33"/>
                        </clipPath>
                        <g clip-path="url(#_clip2)">
                            <g id="Rectangle-1" serif:id="Rectangle 1" transform="matrix(2.66667,0,0,2.66667,0,0)">
                                <path d="M62,147L421,147C426.52,147 431,151.48 431,157L431,375C431,380.52 426.52,385 421,385L62,385C56.48,385 52,380.52 52,375L52,157C52,151.48 56.48,147 62,147Z" style="fill:white;stroke:black;stroke-width:10px;"/>
                            </g>
                            <g id="Ellipse-1" serif:id="Ellipse 1" transform="matrix(2.66667,0,0,2.66667,0,0)">
                                <path d="M241.5,180C287.06,180 324,216.94 324,262.5C324,308.06 287.06,345 241.5,345C195.94,345 159,308.06 159,262.5C159,216.94 195.94,180 241.5,180Z" style="fill:none;stroke:black;stroke-width:10px;"/>
                            </g>
                            <g id="Rectangle-11" serif:id="Rectangle 1" transform="matrix(2.66667,0,0,2.66667,0,0)">
                                <path d="M231.01,196.99L250.99,196.99C253.75,196.99 255.99,199.23 255.99,201.99L255.99,326C255.99,328.76 253.75,331 250.99,331L231.01,331C228.25,331 226.01,328.76 226.01,326L226.01,201.99C226.01,199.23 228.25,196.99 231.01,196.99Z"/>
                            </g>
                            <g id="Rectangle-1-copy" serif:id="Rectangle 1 copy" transform="matrix(2.66667,0,0,2.66667,0,0)">
                                <path d="M307.99,253.99L307.99,274C307.99,276.76 305.75,279 302.99,279L179.01,279C176.25,279 174.01,276.76 174.01,274L174.01,253.99C174.01,251.23 176.25,248.99 179.01,248.99L302.99,248.99C305.75,248.99 307.99,251.23 307.99,253.99Z"/>
                            </g>
                            <g id="Shape-1-copy" serif:id="Shape 1 copy" transform="matrix(2.66667,0,0,2.66667,0,0)">
                                <path d="M241,103L277,103L277,147L294,147L294,87L241,87C241.07,87 240.99,103 241,103Z"/>
                            </g>
                            <g id="Shape-1-copy-2" serif:id="Shape 1 copy 2" transform="matrix(2.66667,0,0,2.66667,0,0)">
                                <path d="M242,103L206,103L206,147L189,147L189,87L242,87C241.93,87 242.01,103 242,103Z"/>
                            </g>
                            <g id="Rectangle-2" serif:id="Rectangle 2" transform="matrix(2.66667,0,0,2.66667,0,0)">
                                <path d="M118,128L127,128C132.52,128 137,132.48 137,138C137,143.52 132.52,148 127,148L118,148C112.48,148 108,143.52 108,138C108,132.48 112.48,128 118,128Z"/>
                            </g>
                            <g id="Shape-1" serif:id="Shape 1" transform="matrix(2.66667,0,0,2.66667,0,0)">
                                <path d="M384,169C384,169 408.77,167.3 410,174C411.51,182.21 410,197 410,197" style="fill:none;stroke:black;stroke-width:8px;stroke-linejoin:round;stroke-miterlimit:4;"/>
                            </g>
                            <g id="Shape-1-copy-3" serif:id="Shape 1 copy 3" transform="matrix(2.66667,0,0,2.66667,0,0)">
                                <path d="M75.42,194.23C75.42,194.23 73.72,169.47 80.42,168.23C88.63,166.72 103.42,168.23 103.42,168.23" style="fill:none;stroke:black;stroke-width:8px;stroke-linejoin:round;stroke-miterlimit:4;"/>
                            </g>
                            <g id="Shape-1-copy-4" serif:id="Shape 1 copy 4" transform="matrix(2.66667,0,0,2.66667,0,0)">
                                <path d="M101.62,363.81C101.62,363.81 76.89,365.5 75.66,358.85C74.15,350.69 75.66,336 75.66,336" style="fill:none;stroke:black;stroke-width:8px;stroke-linejoin:round;stroke-miterlimit:4;"/>
                            </g>
                            <g id="Shape-1-copy-5" serif:id="Shape 1 copy 5" transform="matrix(2.66667,0,0,2.66667,0,0)">
                                <path d="M410.83,338.76C410.83,338.76 412.53,363.36 405.83,364.59C397.63,366.09 382.86,364.59 382.86,364.59" style="fill:none;stroke:black;stroke-width:8px;stroke-linejoin:round;stroke-miterlimit:4;"/>
                            </g>
                            <g id="Rectangle-2-copy" serif:id="Rectangle 2 copy" transform="matrix(2.66667,0,0,2.66667,0,0)">
                                <path d="M368,128L377,128C382.52,128 387,132.48 387,138C387,143.52 382.52,148 377,148L368,148C362.48,148 358,143.52 358,138C358,132.48 362.48,128 368,128Z"/>
                            </g>
                        </g>
                    </g>
                </g>
            </g>
        </g>
    </g>
</svg>
