<?xml version="1.0" encoding="UTF-8" standalone="no"?>
<!DOCTYPE svg PUBLIC "-//W3C//DTD SVG 1.1//EN" "http://www.w3.org/Graphics/SVG/1.1/DTD/svg11.dtd">
<svg width="100%" height="100%" viewBox="0 0 265 265" version="1.1" xmlns="http://www.w3.org/2000/svg" xmlns:xlink="http://www.w3.org/1999/xlink" xml:space="preserve" xmlns:serif="http://www.serif.com/" style="fill-rule:evenodd;clip-rule:evenodd;stroke-miterlimit:100;">
    <g transform="matrix(1,0,0,1,-1991.53,-1.13687e-13)">
        <g id="R7_Warning-App" transform="matrix(1,0,0,1,1991.53,1.13687e-13)">
            <rect x="0" y="0" width="264.567" height="264.567" style="fill:none;"/>
            <g transform="matrix(0.182273,0,0,0.182273,132.283,129.429)">
                <g transform="matrix(1,0,0,1,-642.667,-642.667)">
                    <clipPath id="_clip1">
                        <rect x="0" y="0" width="1285.33" height="1285.33"/>
                    </clipPath>
                    <g clip-path="url(#_clip1)">
                        <g id="Rectangle-1" serif:id="Rectangle 1" transform="matrix(2.66667,0,0,2.66667,0,0)">
                            <path d="M114,27L342,27C350.28,27 357,33.72 357,42L357,437C357,445.28 350.28,452 342,452L114,452C105.72,452 99,445.28 99,437L99,42C99,33.72 105.72,27 114,27Z" style="fill:white;stroke:black;stroke-width:10px;"/>
                        </g>
                        <g id="Ellipse-1" serif:id="Ellipse 1" transform="matrix(2.66667,0,0,2.66667,0,0)">
                            <path d="M228,404.72C236.99,404.72 244.28,412.01 244.28,421C244.28,429.99 236.99,437.28 228,437.28C219.01,437.28 211.72,429.99 211.72,421C211.72,412.01 219.01,404.72 228,404.72Z" style="fill:none;stroke:black;stroke-width:8px;"/>
                        </g>
                        <g id="_-" serif:id="!" transform="matrix(2.66667,0,0,2.66667,0,0)">
                            <path d="M226.54,184.53C224.29,184.53 219.48,185.19 217.53,186.12C216.78,186.52 216.78,187.05 216.78,187.59L216.78,197.17C216.78,208.35 219.18,239.62 219.48,243.35C219.63,243.88 219.93,244.15 220.53,244.15L232.55,244.15C233.45,244.15 233.6,243.75 233.6,243.35C234.05,239.36 236.6,207.95 236.6,196.77L236.6,187.19C236.6,186.79 236.45,186.12 235.7,185.72C234.2,185.06 229.54,184.53 226.54,184.53ZM226.54,274.49C232.85,274.49 237.35,271.16 237.35,265.57C237.35,260.12 233,256.39 226.54,256.39C220.23,256.39 215.73,260.25 215.73,265.57C215.73,271.03 220.08,274.49 226.54,274.49Z" style="fill-rule:nonzero;"/>
                        </g>
                        <g id="Triangle-1" serif:id="Triangle 1" transform="matrix(2.66667,0,0,2.66667,0,0)">
                            <path d="M224.39,127.23C225.79,124.04 230.31,124.04 231.71,127.23L300.91,284.49C302.07,287.14 300.14,290.1 297.25,290.1L158.85,290.1C155.96,290.1 154.02,287.14 155.18,284.49L224.39,127.23Z" style="fill:none;fill-rule:nonzero;stroke:black;stroke-width:10px;"/>
                        </g>
                        <g id="Rectangle-1-copy" serif:id="Rectangle 1 copy" transform="matrix(2.66667,0,0,2.66667,0,0)">
                            <path d="M137.79,53.8L318.21,53.8C326.5,53.8 333.21,60.51 333.21,68.8L333.21,342.2C333.21,350.49 326.5,357.2 318.21,357.2L137.79,357.2C129.5,357.2 122.79,350.49 122.79,342.2L122.79,68.8C122.79,60.51 129.5,53.8 137.79,53.8Z" style="fill:none;stroke:black;stroke-width:10px;"/>
                        </g>
                        <g id="Rectangle-2" serif:id="Rectangle 2" transform="matrix(2.66667,0,0,2.66667,0,0)">
                            <path d="M101,388L356,388C356.55,388 357,388.45 357,389C357,389.55 356.55,390 356,390L101,390C100.45,390 100,389.55 100,389C100,388.45 100.45,388 101,388Z" style="fill:none;stroke:black;stroke-width:10px;"/>
                        </g>
                    </g>
                </g>
            </g>
        </g>
    </g>
</svg>
